<svg width="24" height="25" viewBox="0 0 24 25" fill="none" xmlns="http://www.w3.org/2000/svg">
<path d="M17.62 10.7877C17.19 10.7877 16.85 10.4365 16.85 10.015C16.85 9.64373 16.48 8.87102 15.86 8.19867C15.25 7.54638 14.58 7.16504 14.02 7.16504C13.59 7.16504 13.25 6.81381 13.25 6.39234C13.25 5.97086 13.6 5.61963 14.02 5.61963C15.02 5.61963 16.07 6.16153 16.99 7.13494C17.85 8.04814 18.4 9.18211 18.4 10.005C18.4 10.4365 18.05 10.7877 17.62 10.7877Z" fill="white"/>
<path d="M21.23 10.2876C21.082 10.2876 20.96 10.1661 20.96 10.0149C20.96 6.17742 17.8473 3.06229 14.03 3.06229C13.882 3.06229 13.76 2.94082 13.76 2.78958C13.76 2.62558 13.8944 2.50684 14.02 2.50684C18.1422 2.50684 21.5 5.87391 21.5 10.0149C21.5 10.1619 21.3722 10.2876 21.23 10.2876Z" fill="white" stroke="white"/>
<path d="M11.05 15.0024L9.2 16.8589C8.81 17.2503 8.19 17.2503 7.79 16.8689C7.68 16.7585 7.57 16.6582 7.46 16.5478C6.43 15.5041 5.5 14.4103 4.67 13.2663C3.85 12.1223 3.19 10.9783 2.71 9.8443C2.24 8.70029 2 7.60646 2 6.5628C2 5.88041 2.12 5.22813 2.36 4.62602C2.6 4.01387 2.98 3.4519 3.51 2.95014C4.15 2.31793 4.85 2.00684 5.59 2.00684C5.87 2.00684 6.15 2.06705 6.4 2.18747C6.66 2.30789 6.89 2.48852 7.07 2.74944L9.39 6.03094C9.57 6.28182 9.7 6.51263 9.79 6.7334C9.88 6.94414 9.93 7.15488 9.93 7.34555C9.93 7.58639 9.86 7.82723 9.72 8.05804C9.59 8.28885 9.4 8.5297 9.16 8.77054L8.4 9.56332C8.29 9.67371 8.24 9.80416 8.24 9.96473C8.24 10.045 8.25 10.1153 8.27 10.1955C8.3 10.2758 8.33 10.336 8.35 10.3962C8.53 10.7274 8.84 11.1589 9.28 11.6807C9.73 12.2026 10.21 12.7344 10.73 13.2663C10.83 13.3666 10.94 13.467 11.04 13.5674C11.44 13.9587 11.45 14.601 11.05 15.0024Z" fill="white"/>
<path d="M21.97 18.3944C21.97 18.6754 21.92 18.9664 21.82 19.2474C21.79 19.3277 21.76 19.408 21.72 19.4883C21.55 19.8495 21.33 20.1907 21.04 20.5119C20.55 21.0538 20.01 21.4451 19.4 21.696C19.39 21.696 19.38 21.706 19.37 21.706C18.78 21.9469 18.14 22.0774 17.45 22.0774C16.43 22.0774 15.34 21.8365 14.19 21.3448C13.04 20.8531 11.89 20.1907 10.75 19.3578C10.36 19.0668 9.97 18.7758 9.6 18.4647L12.87 15.1832C13.15 15.3939 13.4 15.5545 13.61 15.6649C13.66 15.6849 13.72 15.7151 13.79 15.7452C13.87 15.7753 13.95 15.7853 14.04 15.7853C14.21 15.7853 14.34 15.7251 14.45 15.6147L15.21 14.8621C15.46 14.6112 15.7 14.4205 15.93 14.3001C16.16 14.1596 16.39 14.0894 16.64 14.0894C16.83 14.0894 17.03 14.1295 17.25 14.2198C17.47 14.3101 17.7 14.4406 17.95 14.6112L21.26 16.9694C21.52 17.1501 21.7 17.3608 21.81 17.6117C21.91 17.8626 21.97 18.1135 21.97 18.3944Z" fill="white"/>
</svg>
