<svg width="1348" height="422" viewBox="0 0 1348 422" fill="none" xmlns="http://www.w3.org/2000/svg">
<mask id="mask0_1_12289" style="mask-type:alpha" maskUnits="userSpaceOnUse" x="24" y="8" width="1300" height="374">
<rect x="24" y="8" width="1300" height="374" rx="24" fill="#34CE72"/>
</mask>
<g mask="url(#mask0_1_12289)">
<path d="M195.427 -93.9419C249.398 -71.0879 281.778 -12.7461 286.452 41.4449C290.931 95.4156 267.665 145.64 226.579 179.905C185.492 214.17 126.113 232.845 63.3216 219.85C0.530449 206.856 -65.7121 162.597 -78.5974 105.477C-91.4828 48.3582 -51.0509 -21.2171 7.06541 -62.4136C65.1817 -103.61 141.219 -116.612 195.427 -93.9419Z" fill="#2AC267"/>
<mask id="mask1_1_12289" style="mask-type:alpha" maskUnits="userSpaceOnUse" x="-132" y="81" width="492" height="422">
<path d="M153.746 471C116.817 495.03 66.3475 504.094 8.42179 501.949C-49.7981 499.601 -115.383 486.54 -129.024 445.906C-142.868 405.566 -104.272 337.562 -96.902 277.121C-89.6234 216.185 -113.571 162.812 -99.5704 128.632C-85.276 94.6551 -33.531 79.9615 11.7207 81.6221C56.7696 83.577 94.8284 101.978 149.408 102.686C203.987 103.395 275.29 86.117 316.747 109.028C358.204 131.938 369.815 195.038 351.511 244.91C333.207 294.783 284.897 330.933 249.241 368.856C213.584 406.778 190.38 446.768 153.746 471Z" fill="#34CE72"/>
</mask>
<g mask="url(#mask1_1_12289)">
<line x1="389.581" y1="40.1401" x2="-229.868" y2="83.9999" stroke="#D0D0D0"/>
<line x1="390.146" y1="48.1198" x2="-229.303" y2="91.9795" stroke="#D0D0D0"/>
<line x1="390.711" y1="56.1001" x2="-228.739" y2="99.9599" stroke="#D0D0D0"/>
<line x1="391.276" y1="64.0802" x2="-228.173" y2="107.94" stroke="#D0D0D0"/>
<line x1="391.841" y1="72.0603" x2="-227.608" y2="115.92" stroke="#D0D0D0"/>
<line x1="392.406" y1="80.0399" x2="-227.043" y2="123.9" stroke="#D0D0D0"/>
<line x1="392.971" y1="88.0203" x2="-226.479" y2="131.88" stroke="#D0D0D0"/>
<line x1="393.536" y1="96.0003" x2="-225.913" y2="139.86" stroke="#D0D0D0"/>
<line x1="394.101" y1="103.98" x2="-225.348" y2="147.84" stroke="#D0D0D0"/>
<line x1="394.666" y1="111.96" x2="-224.783" y2="155.82" stroke="#D0D0D0"/>
<line x1="395.231" y1="119.94" x2="-224.218" y2="163.8" stroke="#D0D0D0"/>
<line x1="395.796" y1="127.92" x2="-223.653" y2="171.78" stroke="#D0D0D0"/>
<line x1="396.361" y1="135.9" x2="-223.088" y2="179.76" stroke="#D0D0D0"/>
<line x1="396.926" y1="143.88" x2="-222.523" y2="187.74" stroke="#D0D0D0"/>
<line x1="397.491" y1="151.861" x2="-221.958" y2="195.72" stroke="#D0D0D0"/>
<line x1="398.056" y1="159.841" x2="-221.393" y2="203.7" stroke="#D0D0D0"/>
<line x1="398.621" y1="167.82" x2="-220.828" y2="211.68" stroke="#D0D0D0"/>
<line x1="399.187" y1="175.8" x2="-220.263" y2="219.66" stroke="#D0D0D0"/>
<line x1="399.752" y1="183.78" x2="-219.697" y2="227.64" stroke="#D0D0D0"/>
<line x1="400.316" y1="191.761" x2="-219.133" y2="235.621" stroke="#D0D0D0"/>
<line x1="400.881" y1="199.74" x2="-218.568" y2="243.6" stroke="#D0D0D0"/>
<line x1="401.447" y1="207.72" x2="-218.003" y2="251.58" stroke="#D0D0D0"/>
<line x1="402.012" y1="215.701" x2="-217.437" y2="259.56" stroke="#D0D0D0"/>
<line x1="402.576" y1="223.68" x2="-216.873" y2="267.54" stroke="#D0D0D0"/>
<line x1="403.141" y1="231.66" x2="-216.308" y2="275.52" stroke="#D0D0D0"/>
<line x1="403.707" y1="239.641" x2="-215.743" y2="283.5" stroke="#D0D0D0"/>
<line x1="404.272" y1="247.621" x2="-215.177" y2="291.48" stroke="#D0D0D0"/>
<line x1="404.836" y1="255.601" x2="-214.613" y2="299.46" stroke="#D0D0D0"/>
<line x1="405.402" y1="263.581" x2="-214.048" y2="307.44" stroke="#D0D0D0"/>
<line x1="405.967" y1="271.561" x2="-213.482" y2="315.42" stroke="#D0D0D0"/>
<line x1="406.532" y1="279.541" x2="-212.917" y2="323.401" stroke="#D0D0D0"/>
<line x1="407.096" y1="287.521" x2="-212.353" y2="331.38" stroke="#D0D0D0"/>
<line x1="407.662" y1="295.501" x2="-211.788" y2="339.361" stroke="#D0D0D0"/>
<line x1="408.227" y1="303.481" x2="-211.222" y2="347.341" stroke="#D0D0D0"/>
<line x1="408.792" y1="311.46" x2="-210.657" y2="355.32" stroke="#D0D0D0"/>
<line x1="409.356" y1="319.441" x2="-210.093" y2="363.301" stroke="#D0D0D0"/>
<line x1="409.922" y1="327.421" x2="-209.528" y2="371.281" stroke="#D0D0D0"/>
<line x1="410.487" y1="335.401" x2="-208.962" y2="379.261" stroke="#D0D0D0"/>
<line x1="411.052" y1="343.381" x2="-208.397" y2="387.24" stroke="#D0D0D0"/>
<line x1="411.616" y1="351.361" x2="-207.833" y2="395.221" stroke="#D0D0D0"/>
<line x1="412.182" y1="359.341" x2="-207.267" y2="403.201" stroke="#D0D0D0"/>
<line x1="412.747" y1="367.321" x2="-206.702" y2="411.181" stroke="#D0D0D0"/>
<line x1="413.312" y1="375.301" x2="-206.137" y2="419.16" stroke="#D0D0D0"/>
</g>
<path d="M1286.31 128.453C1356.85 158.323 1399.17 234.575 1405.28 305.402C1411.14 375.941 1380.73 441.584 1327.03 486.368C1273.32 531.153 1195.71 555.56 1113.64 538.576C1031.57 521.592 944.982 463.746 928.14 389.092C911.298 314.438 964.145 223.503 1040.11 169.66C1116.07 115.817 1215.45 98.8234 1286.31 128.453Z" fill="#2AC267"/>
<path d="M1279.08 229.269L1279.08 229.27C1308 262.186 1322.93 312.759 1323.52 365.864C1324.11 418.956 1310.36 474.423 1282.11 517.055L1282.11 517.058C1225.76 602.655 1111.19 638.007 1011.77 607.9C962.074 592.849 915.98 561.491 882.217 523.398C848.443 485.294 827.092 440.551 826.695 398.762C826.365 357.182 846.842 318.296 879.851 284.976C912.858 251.657 958.334 223.974 1007.81 204.833C1057.36 185.867 1110.71 175.417 1158.93 178.003C1207.14 180.59 1250.12 196.206 1279.08 229.269Z" stroke="white" stroke-width="2"/>
</g>
</svg>
