<svg width="32" height="32" viewBox="0 0 32 32" fill="none" xmlns="http://www.w3.org/2000/svg">
<path d="M29.3333 21.5865C29.3333 26.4398 26.44 29.3332 21.5867 29.3332H20C19.2667 29.3332 18.6667 28.7332 18.6667 27.9998V20.3065C18.6667 19.9465 18.96 19.6399 19.32 19.6399L21.6667 19.5999C21.8533 19.5865 22.0133 19.4532 22.0533 19.2665L22.52 16.7198C22.56 16.4798 22.3733 16.2532 22.12 16.2532L19.28 16.2932C18.9067 16.2932 18.6133 15.9999 18.6 15.6399L18.5467 12.3732C18.5467 12.1598 18.72 11.9732 18.9467 11.9732L22.1466 11.9198C22.3733 11.9198 22.5467 11.7465 22.5467 11.5199L22.4933 8.31982C22.4933 8.09316 22.32 7.91984 22.0933 7.91984L18.4933 7.97319C16.28 8.01319 14.52 9.8265 14.56 12.0398L14.6267 15.7065C14.64 16.0798 14.3467 16.3732 13.9733 16.3865L12.3733 16.4132C12.1467 16.4132 11.9733 16.5865 11.9733 16.8132L12.0133 19.3465C12.0133 19.5732 12.1867 19.7465 12.4133 19.7465L14.0133 19.7198C14.3867 19.7198 14.68 20.0132 14.6933 20.3732L14.8133 27.9732C14.8266 28.7199 14.2266 29.3332 13.48 29.3332H10.4133C5.56 29.3332 2.66667 26.4398 2.66667 21.5732V10.4132C2.66667 5.55983 5.56 2.6665 10.4133 2.6665H21.5867C26.44 2.6665 29.3333 5.55983 29.3333 10.4132V21.5865Z" fill="#F7F7F7"/>
</svg>
