<svg width="78" height="79" viewBox="0 0 78 79" fill="none" xmlns="http://www.w3.org/2000/svg">
<g clip-path="url(#clip0_1_11177)">
<path d="M36.8452 79.0128C57.1942 79.0128 73.6904 62.522 73.6904 42.1795C73.6904 21.837 57.1942 5.34619 36.8452 5.34619C16.4962 5.34619 0 21.837 0 42.1795C0 62.522 16.4962 79.0128 36.8452 79.0128Z" fill="#30B47A"/>
<path d="M39.9339 74.8876C60.283 74.8876 76.7792 58.3967 76.7792 38.0543C76.7792 17.7118 60.283 1.22095 39.9339 1.22095C19.5849 1.22095 3.08875 17.7118 3.08875 38.0543C3.08875 58.3967 19.5849 74.8876 39.9339 74.8876Z" stroke="#0C8563" stroke-width="2" stroke-miterlimit="10"/>
<path d="M45.612 47.6463C45.1653 45.6179 46.0427 43.3683 47.7531 42.1569C46.3043 40.1326 44.6743 38.2612 42.9197 36.5146C42.0947 37.5086 39.5271 39.7905 35.6837 37.8507C33.9974 37.0016 32.7498 34.9088 32.9229 34.2891C30.2949 35.0698 27.6307 35.754 26.2141 36.422C26.8017 37.7622 27.2846 40.2091 25.4816 42.33C24.2059 43.8271 21.1916 43.7627 19.9883 43.3401C19.1512 45.4167 18.5394 47.5336 18.1732 49.6907C19.1995 49.8477 20.1894 50.1414 21.1111 50.5801C21.924 50.9665 22.7329 51.5299 23.0106 52.375C23.1636 52.8459 23.1314 53.357 23.0428 53.8399C22.7732 55.3089 21.9602 56.6732 20.7932 57.627C22.0367 59.2166 23.5378 60.5608 25.1476 61.7681C25.7875 60.8023 26.8057 60.3234 27.7675 59.9571C28.4074 59.7157 29.0835 59.4903 29.7677 59.5587C30.484 59.6271 31.14 60.0135 31.6672 60.4964C32.6492 61.3979 33.2569 62.6857 33.3334 64.0057C35.5669 63.9494 37.7281 63.6717 39.8611 63.2411C40.014 61.9855 40.0905 60.7942 40.509 59.6996C40.9276 58.6049 41.7445 57.6028 42.8674 57.2205C44.3041 56.7335 45.8656 57.3372 47.262 57.9288C48.3647 56.1138 49.2823 54.0452 49.9303 51.8921C47.8134 51.3528 46.0708 49.6625 45.6241 47.6342L45.612 47.6463ZM36.1103 53.5502C34.255 54.1699 32.0335 53.4697 30.8664 51.9162C30.5203 51.4574 30.2627 50.9302 30.1661 50.3668C30.0695 49.8034 30.142 49.2239 30.2828 48.6685C30.6209 47.3163 31.4056 46.0405 32.5848 45.2718C33.764 44.5032 35.3617 44.314 36.6214 44.9539C38.1829 45.7467 39.1487 47.433 39.2212 49.1031C39.3057 51.0309 37.9696 52.9344 36.1103 53.5502Z" fill="#34CE72"/>
<path d="M33.3254 64.3638C33.1403 64.3638 32.9873 64.219 32.9753 64.0338C32.9028 62.7983 32.3394 61.6071 31.4218 60.7619C31.0435 60.4118 30.4399 59.9812 29.7275 59.9128C29.1078 59.8524 28.48 60.0657 27.8844 60.2911C26.9547 60.6412 26.0129 61.0879 25.4294 61.9653C25.3771 62.0457 25.2926 62.1021 25.196 62.1182C25.0994 62.1343 25.0028 62.1101 24.9263 62.0538C23.0791 60.6654 21.6343 59.289 20.5075 57.8482C20.3908 57.6993 20.4149 57.482 20.5638 57.3613C21.6625 56.4678 22.4352 55.1639 22.6928 53.7835C22.7934 53.2483 22.7853 52.8378 22.6726 52.4876C22.4754 51.8799 21.8999 51.3447 20.9582 50.898C20.0849 50.4834 19.1311 50.1937 18.117 50.0408C18.0244 50.0247 17.9399 49.9764 17.8875 49.8999C17.8312 49.8234 17.8111 49.7268 17.8272 49.6343C18.1934 47.4933 18.8092 45.3321 19.6623 43.2112C19.7308 43.0382 19.9279 42.9496 20.105 43.01C21.2399 43.4084 24.0692 43.4487 25.2161 42.1045C27.1237 39.8669 26.2182 37.2993 25.8962 36.5668C25.8198 36.3938 25.8963 36.1885 26.0653 36.108C27.176 35.5808 29.0273 35.0496 30.9872 34.4862C31.5909 34.3131 32.2066 34.1361 32.8223 33.9509C32.9431 33.9147 33.0759 33.9509 33.1685 34.0395C33.261 34.128 33.2932 34.2608 33.261 34.3856C33.1564 34.7598 34.2389 36.7278 35.8407 37.5367C39.6156 39.4403 42.0062 37.0618 42.6501 36.2891C42.7145 36.2127 42.803 36.1684 42.9036 36.1644C43.0043 36.1644 43.0968 36.1966 43.1693 36.265C45.0487 38.1404 46.6424 39.9997 48.0389 41.9516C48.0912 42.028 48.1153 42.1206 48.0993 42.2132C48.0832 42.3057 48.0308 42.3862 47.9544 42.4426C46.3607 43.5734 45.5356 45.6782 45.9542 47.5697C46.3687 49.4451 47.9946 51.0509 50.0068 51.562C50.0994 51.5862 50.1799 51.6465 50.2242 51.731C50.2725 51.8155 50.2805 51.9121 50.2564 52.0047C49.6044 54.1699 48.6707 56.2867 47.5519 58.1219C47.4634 58.2708 47.2742 58.3312 47.1173 58.2627C45.6644 57.647 44.2559 57.1278 42.9721 57.5625C42.0545 57.8724 41.2496 58.7215 40.827 59.8323C40.497 60.6975 40.3883 61.6433 40.2757 62.6454C40.2515 62.8587 40.2274 63.076 40.1992 63.2933C40.1791 63.4422 40.0704 63.563 39.9215 63.5952C37.6316 64.058 35.4785 64.3115 33.3334 64.3638H33.3254ZM29.5183 59.2045C29.6108 59.2045 29.7034 59.2085 29.796 59.2165C30.5123 59.285 31.2407 59.6431 31.8967 60.2468C32.8626 61.1362 33.4864 62.3597 33.6474 63.6515C35.563 63.5831 37.4988 63.3537 39.5392 62.9553C39.5553 62.8265 39.5674 62.6937 39.5835 62.5649C39.7002 61.5185 39.8128 60.5285 40.175 59.5788C40.6821 58.2547 41.6198 57.2768 42.7507 56.8944C44.1754 56.4115 45.6765 56.8985 47.1132 57.4941C48.071 55.8642 48.888 54.025 49.4836 52.1375C47.3869 51.4694 45.7168 49.7349 45.2741 47.7186C44.8233 45.6782 45.6403 43.4125 47.2742 42.0844C46.0105 40.3539 44.5899 38.6918 42.9358 37.0216C42.0303 37.9593 39.3903 40.1124 35.5268 38.1605C34.1022 37.4401 32.8425 35.7982 32.601 34.7478C32.1261 34.8886 31.6472 35.0255 31.1804 35.1583C29.4217 35.6654 27.7515 36.1443 26.6649 36.6031C27.0754 37.7058 27.6912 40.2693 25.7473 42.5552C24.4595 44.0644 21.6786 44.1449 20.1976 43.7666C19.4691 45.6299 18.9259 47.5255 18.5798 49.4049C19.5296 49.582 20.431 49.8677 21.26 50.2621C22.399 50.8014 23.0791 51.4574 23.3407 52.2663C23.4896 52.7291 23.5057 53.2483 23.385 53.9042C23.1194 55.3329 22.3587 56.6852 21.2762 57.6712C22.2742 58.8986 23.5218 60.0818 25.0752 61.273C25.7594 60.4279 26.7092 59.9812 27.6428 59.6311C28.2063 59.4178 28.8542 59.1964 29.5223 59.1964L29.5183 59.2045ZM34.6937 54.1296C33.1202 54.1296 31.5426 53.3972 30.5928 52.1295C30.1904 51.5942 29.9288 51.0066 29.8282 50.4271C29.7356 49.8798 29.7759 49.2761 29.9489 48.5839C30.3312 47.0546 31.2246 45.7426 32.3998 44.978C33.748 44.1047 35.4664 43.9719 36.7824 44.6399C38.3963 45.4609 39.4909 47.2075 39.5714 49.087C39.6599 51.1555 38.2232 53.2161 36.223 53.8841C35.728 54.0491 35.2089 54.1296 34.6937 54.1296ZM34.9473 44.9176C34.2068 44.9176 33.4421 45.139 32.7821 45.5696C31.7559 46.2376 30.9711 47.4007 30.629 48.7569C30.4801 49.3526 30.4439 49.8637 30.5204 50.3104C30.6008 50.7772 30.8182 51.2642 31.1522 51.7109C32.2227 53.1396 34.3074 53.7875 36.0057 53.2201C37.7201 52.6486 38.9516 50.8859 38.8752 49.1192C38.8027 47.4852 37.861 45.972 36.4685 45.2637C36.0057 45.0303 35.4865 44.9136 34.9513 44.9136L34.9473 44.9176Z" fill="black"/>
<path d="M53.8222 45.9438C56.2651 48.3504 58.7119 50.753 61.1548 53.1597C62.4466 54.4314 63.7385 55.7031 65.1471 56.8058C65.9077 57.4015 66.7488 57.9609 67.6744 57.9609C68.596 57.9609 69.578 57.1841 69.57 56.1378C69.5659 55.3248 69.0025 54.6689 68.4753 54.1135C64.5836 50.0085 60.5149 46.1169 56.2892 42.4546C55.5165 43.5895 54.7398 44.7244 53.8182 45.9398L53.8222 45.9438Z" fill="white"/>
<path d="M67.6743 58.311C66.6441 58.311 65.7466 57.7194 64.9336 57.0795C63.509 55.9647 62.189 54.6648 60.9132 53.4092L53.5806 46.1933C53.4559 46.0685 53.4397 45.8713 53.5484 45.7305C54.462 44.5191 55.2468 43.3721 56.0074 42.2614C56.0637 42.1809 56.1523 42.1245 56.2529 42.1084C56.3535 42.0964 56.4541 42.1245 56.5265 42.1889C60.7442 45.8431 64.8532 49.7751 68.7368 53.872C69.3083 54.4756 69.92 55.2 69.928 56.1337C69.928 56.677 69.7107 57.2042 69.3042 57.6107C68.8696 58.0453 68.2619 58.3069 67.6824 58.3069L67.6743 58.311ZM54.2849 45.9075L61.4001 52.9061C62.6638 54.1497 63.9718 55.4335 65.3643 56.5241C66.0806 57.0875 66.8574 57.6067 67.6743 57.6067C68.0727 57.6067 68.4953 57.4215 68.8011 57.1157C69.0748 56.842 69.2237 56.4919 69.2197 56.1377C69.2157 55.4576 68.7247 54.8821 68.2216 54.3549C64.4427 50.3707 60.4544 46.5434 56.3575 42.9777C55.7136 43.9195 55.0455 44.8934 54.2849 45.9075Z" fill="black"/>
<path d="M44.2838 19.3501C35.8646 19.3501 29.0391 26.1756 29.0391 34.5948C29.0391 43.014 35.8646 49.8395 44.2838 49.8395C52.703 49.8395 59.5285 43.014 59.5285 34.5948C59.5285 26.1756 52.703 19.3501 44.2838 19.3501ZM44.2838 46.1732C37.8889 46.1732 32.7054 40.9897 32.7054 34.5948C32.7054 28.1999 37.8889 23.0164 44.2838 23.0164C50.6787 23.0164 55.8622 28.1999 55.8622 34.5948C55.8622 40.9897 50.6787 46.1732 44.2838 46.1732ZM44.2838 46.1732C37.8889 46.1732 32.7054 40.9897 32.7054 34.5948C32.7054 28.1999 37.8889 23.0164 44.2838 23.0164C50.6787 23.0164 55.8622 28.1999 55.8622 34.5948C55.8622 40.9897 50.6787 46.1732 44.2838 46.1732Z" fill="white"/>
<path d="M44.2841 50.1896C35.6838 50.1896 28.6893 43.1951 28.6893 34.5948C28.6893 25.9945 35.6838 19 44.2841 19C52.8844 19 59.8789 25.9945 59.8789 34.5948C59.8789 43.1951 52.8844 50.1896 44.2841 50.1896ZM44.2841 19.6962C36.0701 19.6962 29.3895 26.3769 29.3895 34.5908C29.3895 42.8047 36.0701 49.4854 44.2841 49.4854C52.498 49.4854 59.1787 42.8047 59.1787 34.5908C59.1787 26.3769 52.498 19.6962 44.2841 19.6962ZM44.2841 46.5193C37.7081 46.5193 32.3556 41.1668 32.3556 34.5908C32.3556 28.0148 37.7081 22.6623 44.2841 22.6623C50.8601 22.6623 56.2126 28.0148 56.2126 34.5908C56.2126 41.1668 50.8601 46.5193 44.2841 46.5193ZM33.0558 34.5908C33.0558 40.7845 38.0945 45.8191 44.2841 45.8191C50.4737 45.8191 55.5123 40.7804 55.5123 34.5908C55.5123 28.4012 50.4737 23.3625 44.2841 23.3625C38.0945 23.3625 33.0558 28.4012 33.0558 34.5908Z" fill="black"/>
<path d="M38.3357 35.6332C38.9958 35.6332 39.531 35.0981 39.531 34.4379C39.531 33.7778 38.9958 33.2427 38.3357 33.2427C37.6756 33.2427 37.1404 33.7778 37.1404 34.4379C37.1404 35.0981 37.6756 35.6332 38.3357 35.6332Z" fill="white"/>
<path d="M38.3355 35.9834C37.4824 35.9834 36.7902 35.2912 36.7902 34.438C36.7902 33.5848 37.4824 32.8926 38.3355 32.8926C39.1887 32.8926 39.8809 33.5848 39.8809 34.438C39.8809 35.2912 39.1887 35.9834 38.3355 35.9834ZM38.3355 33.5928C37.8687 33.5928 37.4904 33.9711 37.4904 34.438C37.4904 34.9048 37.8687 35.2831 38.3355 35.2831C38.8024 35.2831 39.1807 34.9048 39.1807 34.438C39.1807 33.9711 38.8024 33.5928 38.3355 33.5928Z" fill="black"/>
<path d="M44.1271 35.6332C44.7872 35.6332 45.3224 35.0981 45.3224 34.4379C45.3224 33.7778 44.7872 33.2427 44.1271 33.2427C43.467 33.2427 42.9319 33.7778 42.9319 34.4379C42.9319 35.0981 43.467 35.6332 44.1271 35.6332Z" fill="white"/>
<path d="M44.1268 35.9834C43.2736 35.9834 42.5814 35.2912 42.5814 34.438C42.5814 33.5848 43.2736 32.8926 44.1268 32.8926C44.98 32.8926 45.6722 33.5848 45.6722 34.438C45.6722 35.2912 44.98 35.9834 44.1268 35.9834ZM44.1268 33.5928C43.66 33.5928 43.2817 33.9711 43.2817 34.438C43.2817 34.9048 43.66 35.2831 44.1268 35.2831C44.5936 35.2831 44.9719 34.9048 44.9719 34.438C44.9719 33.9711 44.5936 33.5928 44.1268 33.5928Z" fill="black"/>
<path d="M49.9182 35.6332C50.5783 35.6332 51.1134 35.0981 51.1134 34.4379C51.1134 33.7778 50.5783 33.2427 49.9182 33.2427C49.258 33.2427 48.7229 33.7778 48.7229 34.4379C48.7229 35.0981 49.258 35.6332 49.9182 35.6332Z" fill="white"/>
<path d="M49.918 35.9834C49.0648 35.9834 48.3726 35.2912 48.3726 34.438C48.3726 33.5848 49.0648 32.8926 49.918 32.8926C50.7712 32.8926 51.4634 33.5848 51.4634 34.438C51.4634 35.2912 50.7712 35.9834 49.918 35.9834ZM49.918 33.5928C49.4512 33.5928 49.0728 33.9711 49.0728 34.438C49.0728 34.9048 49.4512 35.2831 49.918 35.2831C50.3849 35.2831 50.7631 34.9048 50.7631 34.438C50.7631 33.9711 50.3849 33.5928 49.918 33.5928Z" fill="black"/>
<path d="M55.7896 46.3825C55.7896 46.3825 55.7694 46.3825 55.7574 46.3785C55.697 46.3624 55.6608 46.298 55.6769 46.2336L55.9465 45.2959C55.9626 45.2356 56.027 45.1953 56.0914 45.2154C56.1518 45.2315 56.188 45.2959 56.1719 45.3603L55.9023 46.298C55.8862 46.3503 55.8419 46.3825 55.7896 46.3825Z" fill="black"/>
<path d="M57.0695 48.0244C57.0695 48.0244 57.0575 48.0244 57.0535 48.0244C56.9891 48.0164 56.9448 47.956 56.9528 47.8916C57.0977 46.7969 57.2668 45.6862 57.468 44.5996C57.4801 44.5352 57.5404 44.4949 57.6048 44.507C57.6692 44.5191 57.7094 44.5795 57.6974 44.6438C57.5002 45.7305 57.3271 46.8332 57.1862 47.9278C57.1782 47.9882 57.1299 48.0284 57.0695 48.0284V48.0244Z" fill="black"/>
<path d="M58.7358 49.6222C58.6714 49.6222 58.6191 49.5699 58.6191 49.5055C58.6191 48.9582 58.7037 48.0366 58.7761 47.2237C58.8204 46.7287 58.8606 46.3021 58.8727 46.0324C58.8727 45.968 58.925 45.9117 58.9934 45.9238C59.0578 45.9238 59.1061 45.9801 59.1021 46.0445C59.09 46.3182 59.0497 46.7488 59.0014 47.2478C58.929 48.0567 58.8445 48.9703 58.8445 49.5096C58.8445 49.574 58.7922 49.6263 58.7278 49.6263L58.7358 49.6222Z" fill="black"/>
<path d="M60.4422 51.1916C60.3778 51.1916 60.3255 51.1393 60.3255 51.0789L60.237 47.1832C60.237 47.1188 60.2852 47.0665 60.3496 47.0625C60.414 47.0625 60.4663 47.1108 60.4704 47.1752L60.5589 51.0709C60.5589 51.1353 60.5106 51.1876 60.4462 51.1916H60.4422Z" fill="black"/>
<path d="M62.0639 52.9142C61.9995 52.9142 61.9513 52.8659 61.9472 52.8015L61.7943 48.7247C61.7943 48.6603 61.8426 48.608 61.907 48.604C61.9673 48.604 62.0237 48.6523 62.0277 48.7167L62.1806 52.7935C62.1806 52.8579 62.1323 52.9102 62.0679 52.9142H62.0639Z" fill="black"/>
<path d="M63.714 54.3671C63.6537 54.3671 63.6014 54.3188 63.5974 54.2584L63.3921 50.4473C63.3921 50.3829 63.4364 50.3265 63.5008 50.3225C63.5732 50.3225 63.6215 50.3668 63.6255 50.4312L63.8308 54.2423C63.8308 54.3067 63.7865 54.3631 63.7221 54.3671C63.7221 54.3671 63.7181 54.3671 63.714 54.3671Z" fill="black"/>
<path d="M65.3517 55.7071C65.2914 55.7071 65.239 55.6588 65.235 55.5985L64.9493 51.8919C64.9453 51.8275 64.9936 51.7712 65.058 51.7672C65.1183 51.7591 65.1787 51.8114 65.1827 51.8758L65.4685 55.5824C65.4725 55.6468 65.4242 55.7031 65.3598 55.7071C65.3598 55.7071 65.3558 55.7071 65.3517 55.7071Z" fill="black"/>
<path d="M66.8976 56.9145C66.8372 56.9145 66.7889 56.8703 66.7808 56.8099L66.4468 53.5581C66.4388 53.4937 66.4871 53.4374 66.5515 53.4293C66.6118 53.4213 66.6722 53.4696 66.6802 53.534L67.0143 56.7858C67.0223 56.8501 66.974 56.9065 66.9097 56.9145C66.9097 56.9145 66.9016 56.9145 66.8976 56.9145Z" fill="black"/>
<path d="M68.4146 56.7413C68.3583 56.7413 68.31 56.7011 68.2979 56.6448L68.0645 55.1919C68.0524 55.1275 68.0967 55.0672 68.1611 55.0591C68.2255 55.047 68.2858 55.0913 68.2939 55.1557L68.5273 56.6085C68.5394 56.6729 68.4951 56.7333 68.4307 56.7413C68.4227 56.7413 68.4186 56.7413 68.4106 56.7413H68.4146Z" fill="black"/>
<g opacity="0.13">
<path d="M55.0692 38.2813C54.6869 38.6033 54.5098 39.1264 54.1839 39.5088C54.1235 39.6174 53.3427 40.4988 52.9 40.9214C52.5177 41.2634 52.1515 41.5653 51.7772 41.847C51.7129 41.8591 51.6444 41.8832 51.58 41.9235C49.6724 43.3038 48.2397 43.8069 45.8331 44.2496C44.6901 44.4629 43.3701 44.644 41.5712 44.1973C40.3075 43.9035 39.6998 43.5574 38.3798 42.668C37.8204 42.2736 36.5728 41.1749 35.7236 40.1487C34.8101 38.9011 34.5002 37.8104 34.311 37.3154C34.1219 36.8043 33.977 36.2811 33.8281 35.758C33.6067 35.0416 33.5383 34.7881 33.5383 34.1764C33.3975 33.786 33.2727 33.3956 33.156 32.9972C33.0433 32.9449 32.9186 32.9207 32.7938 32.9288C32.5886 34.5023 32.6208 36.0839 32.818 37.6535C33.1601 39.0097 33.5826 40.4787 34.8825 41.9396C35.9289 43.0946 36.6492 43.493 37.1 43.8632C38.1504 44.6198 39.2692 45.3121 40.5047 45.7145C41.1808 45.9117 41.8851 45.9922 42.5813 46.0767C42.5853 46.0767 42.5894 46.0767 42.5934 46.0767C43.354 46.2135 44.1267 46.2176 44.8914 46.133C45.491 46.0848 46.0705 45.9077 46.6501 45.7507C47.8534 45.4569 49.0527 45.0867 50.1513 44.5072C50.5981 44.2335 50.751 44.1248 50.9603 43.9679C52.3085 43.1268 53.7009 41.9597 54.4132 41.1467C54.5984 40.7644 54.7795 40.3781 54.9445 39.9877C55.1538 39.4041 55.367 38.8206 55.5723 38.237C55.4113 38.1726 55.2222 38.1767 55.0612 38.2733L55.0692 38.2813Z" fill="black"/>
</g>
<g opacity="0.13">
<path d="M57.5568 43.2595C56.9773 43.0945 56.5869 43.4969 56.3012 43.9396C56.2891 43.9557 56.277 43.9678 56.2609 43.9879C55.7539 44.5795 55.613 44.5272 54.7759 45.2838C54.7759 45.2838 54.7678 45.2878 54.7638 45.2918C54.5988 45.4085 54.4016 45.489 54.297 45.6701C53.5927 46.5354 54.6672 47.7427 55.621 47.1793C56.2851 46.8131 56.8566 46.2939 57.3154 45.6903C57.6091 45.3683 57.8949 45.0343 58.1202 44.66C58.4422 44.1408 58.1404 43.4164 57.5528 43.2635L57.5568 43.2595Z" fill="black"/>
</g>
<g opacity="0.13">
<path d="M20.6683 27.0488C20.6441 26.7188 20.1451 26.6866 20.0727 27.0086C19.9721 27.3184 20.0123 27.2661 19.6863 27.5881C19.3724 27.8457 19.4851 27.7692 18.9941 27.9543C18.5353 28.0952 18.7204 28.067 18.3341 28.063C18.2818 28.0549 18.2295 28.0388 18.1772 28.0227C17.988 27.9503 18.0483 27.9865 17.6861 27.7853C17.5372 27.7088 17.4044 27.568 17.2314 27.5599C16.7082 27.4633 16.4507 28.236 16.9135 28.5016C17.7345 29.0771 18.5595 29.3347 19.4972 28.8598C19.9801 28.5902 20.3343 28.1354 20.5073 27.6042C20.5838 27.4311 20.6844 27.246 20.6683 27.0569V27.0488Z" fill="black"/>
</g>
<g opacity="0.13">
<path d="M22.3747 32.2848C22.0689 32.3975 21.9562 32.4739 21.3767 32.5786C21.103 32.6671 20.769 32.6228 20.5316 32.8039C20.0406 33.1621 20.447 33.9831 21.0185 33.8101C21.7067 33.6652 22.4955 33.633 23.0307 33.1178C23.4533 32.6349 22.918 32.0031 22.3707 32.2848H22.3747Z" fill="black"/>
</g>
<g opacity="0.13">
<path d="M26.1821 27.8137C26.1821 27.8137 26.1821 27.8016 26.1821 27.7976C26.1821 27.8016 26.1821 27.8096 26.1821 27.8137C26.1821 27.6969 26.158 27.5802 26.1017 27.4796C25.8642 27.0249 25.168 27.1013 25.003 27.5682C24.9909 27.5883 24.9789 27.6165 24.9668 27.6446C24.9225 27.7372 24.8903 27.8338 24.8541 27.9304C24.8219 28.0028 24.7816 28.1034 24.7535 28.1598C24.6931 28.2644 24.6649 28.3771 24.6649 28.4978C24.673 29.2705 25.7435 29.4194 25.9487 28.6749C26.0534 28.4334 26.1379 28.1879 26.1701 27.9304C26.1781 27.8941 26.1821 27.8539 26.1821 27.8177V27.8137Z" fill="black"/>
</g>
<path d="M20.2781 34.2808C20.1372 34.2808 20.0044 34.1923 19.9521 34.0595C19.7307 33.496 19.5174 32.9608 19.1995 32.4255C18.5837 32.4899 17.964 32.4577 17.3764 32.4014C17.2034 32.7113 17.0384 33.0332 16.8653 33.3672C16.7567 33.5765 16.6439 33.7898 16.5272 34.0071C16.4427 34.1641 16.2576 34.2325 16.0886 34.1681C15.0543 33.7616 14.1528 33.0936 13.4807 32.2484C13.3841 32.1277 13.3801 31.9547 13.4686 31.8299C13.7986 31.3631 14.1407 30.8841 14.4989 30.3127C14.1287 29.8096 13.7946 29.218 13.4848 28.5137C13.368 28.5379 13.2513 28.562 13.1306 28.5902C12.6356 28.6948 12.1245 28.8035 11.5731 28.884C11.3961 28.9081 11.2311 28.7995 11.1868 28.6264C10.8689 27.4472 10.9574 26.1151 11.4483 24.6663C11.5087 24.4933 11.6898 24.3967 11.8669 24.441C12.535 24.61 13.207 24.783 13.9113 24.9561C14.193 24.3685 14.5311 23.8172 14.8893 23.2457C14.5593 22.799 14.1971 22.2839 13.8711 21.6842C13.7946 21.5434 13.8228 21.3663 13.9435 21.2576C14.7082 20.5574 15.67 19.9497 16.8009 19.4506C16.9659 19.3782 17.1591 19.4426 17.2476 19.5995C17.5776 20.1911 17.8795 20.8069 18.141 21.4307C18.8011 21.3341 19.4691 21.3099 20.1332 21.3623C20.4431 20.7626 20.769 20.1469 21.1755 19.5029C21.2721 19.35 21.4733 19.2937 21.6343 19.3782C22.4633 19.8128 23.2481 20.336 23.9645 20.9437C24.1577 21.1047 24.3427 21.2737 24.5319 21.4427C24.6285 21.5313 24.7653 21.652 24.8136 21.8412C24.8378 21.9378 24.8217 22.0384 24.7654 22.1229C24.6044 22.3643 24.4353 22.6058 24.2663 22.8513C24.045 23.1692 23.8196 23.4952 23.5862 23.8494C23.7793 24.3363 23.9766 24.8313 24.1617 25.3344C24.7573 25.3948 25.5058 25.5195 26.3067 25.8495C26.4315 25.9019 26.516 26.0186 26.524 26.1514C26.5884 27.238 26.4475 28.232 26.0894 29.1898C26.037 29.3307 25.9083 29.4273 25.7473 29.4152L25.5139 29.4072C25.0068 29.387 24.4836 29.3669 23.9323 29.4072C23.7109 29.9183 23.393 30.4374 22.9423 31.0049C23.2441 31.5401 23.5499 32.1036 23.8236 32.7636C23.892 32.9286 23.8236 33.1177 23.6666 33.2063C22.572 33.8019 21.4492 34.1681 20.3223 34.2888C20.3102 34.2888 20.2982 34.2888 20.2861 34.2888L20.2781 34.2808ZM19.3766 31.6971C19.4933 31.6971 19.606 31.7575 19.6704 31.8581C20.0366 32.4255 20.2821 32.993 20.5034 33.5483C21.3566 33.4236 22.2058 33.1499 23.0429 32.7274C22.7813 32.1438 22.4915 31.6327 22.2098 31.1337C22.1373 31.0089 22.1535 30.8519 22.246 30.7393C22.7893 30.0793 23.1435 29.5078 23.3568 28.9444C23.4051 28.8196 23.5178 28.7311 23.6506 28.719C24.3186 28.6546 24.9263 28.6787 25.5139 28.7029C25.7554 27.9785 25.86 27.2219 25.8318 26.4089C25.0913 26.1353 24.4031 26.0467 23.8759 26.0025C23.7391 25.9904 23.6224 25.9019 23.5741 25.769C23.3568 25.1493 23.1072 24.5295 22.8658 23.9299C22.8255 23.8252 22.8336 23.7045 22.898 23.6079C23.1717 23.1813 23.4332 22.803 23.6868 22.4368C23.8075 22.2637 23.9242 22.0947 24.0369 21.9297C23.8638 21.7727 23.6868 21.6158 23.5097 21.4629C22.9141 20.9598 22.2742 20.5171 21.5981 20.1388C21.2399 20.7344 20.938 21.314 20.6483 21.8774C20.5839 22.0062 20.443 22.0786 20.3022 22.0665C19.5295 21.986 18.7487 22.0182 17.9841 22.1551C17.8231 22.1832 17.6581 22.0947 17.5977 21.9418C17.3603 21.3542 17.0907 20.7707 16.7888 20.2113C15.9517 20.6056 15.2233 21.0644 14.6196 21.5755C14.9376 22.1189 15.2837 22.5937 15.5895 23.0042C15.6781 23.1209 15.6821 23.2779 15.6057 23.3986C15.163 24.1069 14.7404 24.779 14.4265 25.4914C14.358 25.6483 14.189 25.7288 14.024 25.6886C13.3278 25.5195 12.6678 25.3545 12.0158 25.1855C11.6939 26.252 11.6214 27.238 11.7944 28.1274C12.209 28.059 12.6034 27.9745 12.9857 27.894C13.199 27.8497 13.4123 27.8014 13.6256 27.7612C13.7906 27.729 13.9556 27.8175 14.016 27.9704C14.3701 28.8276 14.7565 29.5158 15.1952 30.0632C15.2877 30.1799 15.2957 30.3408 15.2193 30.4656C14.8571 31.0572 14.519 31.5442 14.189 32.007C14.6961 32.5865 15.332 33.0574 16.0483 33.3874C16.1127 33.2666 16.1731 33.1499 16.2334 33.0332C16.4467 32.6227 16.652 32.2323 16.8693 31.85C16.9378 31.7293 17.0706 31.6609 17.2114 31.6729C17.8915 31.7454 18.62 31.7977 19.3202 31.6931C19.3363 31.6931 19.3565 31.6931 19.3726 31.6931L19.3766 31.6971Z" fill="black"/>
<path d="M18.4107 28.3166C18.1088 28.3166 17.807 28.2562 17.5253 28.1315C17.2758 28.0188 17.0947 27.882 16.9739 27.7049C16.8089 27.4675 16.7687 27.1938 16.7526 26.9805C16.6962 26.2521 16.8733 25.588 17.2476 25.1091C17.7144 24.5135 18.4871 24.2519 19.1351 24.4732C19.1834 24.4893 19.2236 24.5175 19.2598 24.5497C19.9319 24.7831 20.4269 25.4592 20.4672 26.1997C20.5074 26.9161 20.1372 27.6244 19.5214 28.0108C19.1914 28.22 18.801 28.3247 18.4066 28.3247L18.4107 28.3166ZM18.6602 25.089C18.3503 25.089 18.0203 25.254 17.803 25.5357C17.5373 25.8778 17.4126 26.3728 17.4528 26.9241C17.4609 27.0489 17.481 27.2059 17.5494 27.3024C17.5977 27.3709 17.6822 27.4312 17.811 27.4876C18.2497 27.6807 18.7608 27.6526 19.1511 27.4071C19.5455 27.1576 19.7951 26.6827 19.7709 26.2279C19.7468 25.7691 19.4329 25.3345 19.0264 25.1976L18.9781 25.1816C18.9017 25.1574 18.8413 25.1292 18.793 25.097C18.7487 25.089 18.7085 25.085 18.6642 25.085L18.6602 25.089Z" fill="black"/>
<g opacity="0.13">
<path d="M20.6683 27.0488C20.6441 26.7188 20.1451 26.6866 20.0727 27.0086C19.9721 27.3184 20.0123 27.2661 19.6863 27.5881C19.3724 27.8457 19.4851 27.7692 18.9941 27.9543C18.5353 28.0952 18.7204 28.067 18.3341 28.063C18.2818 28.0549 18.2295 28.0388 18.1772 28.0227C17.988 27.9503 18.0483 27.9865 17.6861 27.7853C17.5372 27.7088 17.4044 27.568 17.2314 27.5599C16.7082 27.4633 16.4507 28.236 16.9135 28.5016C17.7345 29.0771 18.5595 29.3347 19.4972 28.8598C19.9801 28.5902 20.3343 28.1354 20.5073 27.6042C20.5838 27.4311 20.6844 27.246 20.6683 27.0569V27.0488Z" fill="black"/>
</g>
<g opacity="0.13">
<path d="M22.3747 32.2848C22.0689 32.3975 21.9562 32.4739 21.3767 32.5786C21.103 32.6671 20.769 32.6228 20.5316 32.8039C20.0406 33.1621 20.447 33.9831 21.0185 33.8101C21.7067 33.6652 22.4955 33.633 23.0307 33.1178C23.4533 32.6349 22.918 32.0031 22.3707 32.2848H22.3747Z" fill="black"/>
</g>
<g opacity="0.13">
<path d="M26.1821 27.8137C26.1821 27.8137 26.1821 27.8016 26.1821 27.7976C26.1821 27.8016 26.1821 27.8096 26.1821 27.8137C26.1821 27.6969 26.158 27.5802 26.1017 27.4796C25.8642 27.0249 25.168 27.1013 25.003 27.5682C24.9909 27.5883 24.9789 27.6165 24.9668 27.6446C24.9225 27.7372 24.8903 27.8338 24.8541 27.9304C24.8219 28.0028 24.7816 28.1034 24.7535 28.1598C24.6931 28.2644 24.6649 28.3771 24.6649 28.4978C24.673 29.2705 25.7435 29.4194 25.9487 28.6749C26.0534 28.4334 26.1379 28.1879 26.1701 27.9304C26.1781 27.8941 26.1821 27.8539 26.1821 27.8177V27.8137Z" fill="black"/>
</g>
<path d="M20.2781 34.2808C20.1372 34.2808 20.0044 34.1923 19.9521 34.0595C19.7307 33.496 19.5174 32.9608 19.1995 32.4255C18.5837 32.4899 17.964 32.4577 17.3764 32.4014C17.2034 32.7113 17.0384 33.0332 16.8653 33.3672C16.7567 33.5765 16.6439 33.7898 16.5272 34.0071C16.4427 34.1641 16.2576 34.2325 16.0886 34.1681C15.0543 33.7616 14.1528 33.0936 13.4807 32.2484C13.3841 32.1277 13.3801 31.9547 13.4686 31.8299C13.7986 31.3631 14.1407 30.8841 14.4989 30.3127C14.1287 29.8096 13.7946 29.218 13.4848 28.5137C13.368 28.5379 13.2513 28.562 13.1306 28.5902C12.6356 28.6948 12.1245 28.8035 11.5731 28.884C11.3961 28.9081 11.2311 28.7995 11.1868 28.6264C10.8689 27.4472 10.9574 26.1151 11.4483 24.6663C11.5087 24.4933 11.6898 24.3967 11.8669 24.441C12.535 24.61 13.207 24.783 13.9113 24.9561C14.193 24.3685 14.5311 23.8172 14.8893 23.2457C14.5593 22.799 14.1971 22.2839 13.8711 21.6842C13.7946 21.5434 13.8228 21.3663 13.9435 21.2576C14.7082 20.5574 15.67 19.9497 16.8009 19.4506C16.9659 19.3782 17.1591 19.4426 17.2476 19.5995C17.5776 20.1911 17.8795 20.8069 18.141 21.4307C18.8011 21.3341 19.4691 21.3099 20.1332 21.3623C20.4431 20.7626 20.769 20.1469 21.1755 19.5029C21.2721 19.35 21.4733 19.2937 21.6343 19.3782C22.4633 19.8128 23.2481 20.336 23.9645 20.9437C24.1577 21.1047 24.3427 21.2737 24.5319 21.4427C24.6285 21.5313 24.7653 21.652 24.8136 21.8412C24.8378 21.9378 24.8217 22.0384 24.7654 22.1229C24.6044 22.3643 24.4353 22.6058 24.2663 22.8513C24.045 23.1692 23.8196 23.4952 23.5862 23.8494C23.7793 24.3363 23.9766 24.8313 24.1617 25.3344C24.7573 25.3948 25.5058 25.5195 26.3067 25.8495C26.4315 25.9019 26.516 26.0186 26.524 26.1514C26.5884 27.238 26.4475 28.232 26.0894 29.1898C26.037 29.3307 25.9083 29.4273 25.7473 29.4152L25.5139 29.4072C25.0068 29.387 24.4836 29.3669 23.9323 29.4072C23.7109 29.9183 23.393 30.4374 22.9423 31.0049C23.2441 31.5401 23.5499 32.1036 23.8236 32.7636C23.892 32.9286 23.8236 33.1177 23.6666 33.2063C22.572 33.8019 21.4492 34.1681 20.3223 34.2888C20.3102 34.2888 20.2982 34.2888 20.2861 34.2888L20.2781 34.2808ZM19.3766 31.6971C19.4933 31.6971 19.606 31.7575 19.6704 31.8581C20.0366 32.4255 20.2821 32.993 20.5034 33.5483C21.3566 33.4236 22.2058 33.1499 23.0429 32.7274C22.7813 32.1438 22.4915 31.6327 22.2098 31.1337C22.1373 31.0089 22.1535 30.8519 22.246 30.7393C22.7893 30.0793 23.1435 29.5078 23.3568 28.9444C23.4051 28.8196 23.5178 28.7311 23.6506 28.719C24.3186 28.6546 24.9263 28.6787 25.5139 28.7029C25.7554 27.9785 25.86 27.2219 25.8318 26.4089C25.0913 26.1353 24.4031 26.0467 23.8759 26.0025C23.7391 25.9904 23.6224 25.9019 23.5741 25.769C23.3568 25.1493 23.1072 24.5295 22.8658 23.9299C22.8255 23.8252 22.8336 23.7045 22.898 23.6079C23.1717 23.1813 23.4332 22.803 23.6868 22.4368C23.8075 22.2637 23.9242 22.0947 24.0369 21.9297C23.8638 21.7727 23.6868 21.6158 23.5097 21.4629C22.9141 20.9598 22.2742 20.5171 21.5981 20.1388C21.2399 20.7344 20.938 21.314 20.6483 21.8774C20.5839 22.0062 20.443 22.0786 20.3022 22.0665C19.5295 21.986 18.7487 22.0182 17.9841 22.1551C17.8231 22.1832 17.6581 22.0947 17.5977 21.9418C17.3603 21.3542 17.0907 20.7707 16.7888 20.2113C15.9517 20.6056 15.2233 21.0644 14.6196 21.5755C14.9376 22.1189 15.2837 22.5937 15.5895 23.0042C15.6781 23.1209 15.6821 23.2779 15.6057 23.3986C15.163 24.1069 14.7404 24.779 14.4265 25.4914C14.358 25.6483 14.189 25.7288 14.024 25.6886C13.3278 25.5195 12.6678 25.3545 12.0158 25.1855C11.6939 26.252 11.6214 27.238 11.7944 28.1274C12.209 28.059 12.6034 27.9745 12.9857 27.894C13.199 27.8497 13.4123 27.8014 13.6256 27.7612C13.7906 27.729 13.9556 27.8175 14.016 27.9704C14.3701 28.8276 14.7565 29.5158 15.1952 30.0632C15.2877 30.1799 15.2957 30.3408 15.2193 30.4656C14.8571 31.0572 14.519 31.5442 14.189 32.007C14.6961 32.5865 15.332 33.0574 16.0483 33.3874C16.1127 33.2666 16.1731 33.1499 16.2334 33.0332C16.4467 32.6227 16.652 32.2323 16.8693 31.85C16.9378 31.7293 17.0706 31.6609 17.2114 31.6729C17.8915 31.7454 18.62 31.7977 19.3202 31.6931C19.3363 31.6931 19.3565 31.6931 19.3726 31.6931L19.3766 31.6971Z" fill="black"/>
<path d="M18.4107 28.3166C18.1088 28.3166 17.807 28.2562 17.5253 28.1315C17.2758 28.0188 17.0947 27.882 16.9739 27.7049C16.8089 27.4675 16.7687 27.1938 16.7526 26.9805C16.6962 26.2521 16.8733 25.588 17.2476 25.1091C17.7144 24.5135 18.4871 24.2519 19.1351 24.4732C19.1834 24.4893 19.2236 24.5175 19.2598 24.5497C19.9319 24.7831 20.4269 25.4592 20.4672 26.1997C20.5074 26.9161 20.1372 27.6244 19.5214 28.0108C19.1914 28.22 18.801 28.3247 18.4066 28.3247L18.4107 28.3166ZM18.6602 25.089C18.3503 25.089 18.0203 25.254 17.803 25.5357C17.5373 25.8778 17.4126 26.3728 17.4528 26.9241C17.4609 27.0489 17.481 27.2059 17.5494 27.3024C17.5977 27.3709 17.6822 27.4312 17.811 27.4876C18.2497 27.6807 18.7608 27.6526 19.1511 27.4071C19.5455 27.1576 19.7951 26.6827 19.7709 26.2279C19.7468 25.7691 19.4329 25.3345 19.0264 25.1976L18.9781 25.1816C18.9017 25.1574 18.8413 25.1292 18.793 25.097C18.7487 25.089 18.7085 25.085 18.6642 25.085L18.6602 25.089Z" fill="black"/>
<g opacity="0.13">
<path d="M20.6683 27.0488C20.6441 26.7188 20.1451 26.6866 20.0727 27.0086C19.9721 27.3184 20.0123 27.2661 19.6863 27.5881C19.3724 27.8457 19.4851 27.7692 18.9941 27.9543C18.5353 28.0952 18.7204 28.067 18.3341 28.063C18.2818 28.0549 18.2295 28.0388 18.1772 28.0227C17.988 27.9503 18.0483 27.9865 17.6861 27.7853C17.5372 27.7088 17.4044 27.568 17.2314 27.5599C16.7082 27.4633 16.4507 28.236 16.9135 28.5016C17.7345 29.0771 18.5595 29.3347 19.4972 28.8598C19.9801 28.5902 20.3343 28.1354 20.5073 27.6042C20.5838 27.4311 20.6844 27.246 20.6683 27.0569V27.0488Z" fill="white"/>
</g>
<g opacity="0.13">
<path d="M22.3747 32.2848C22.0689 32.3975 21.9562 32.4739 21.3767 32.5786C21.103 32.6671 20.769 32.6228 20.5316 32.8039C20.0406 33.1621 20.447 33.9831 21.0185 33.8101C21.7067 33.6652 22.4955 33.633 23.0307 33.1178C23.4533 32.6349 22.918 32.0031 22.3707 32.2848H22.3747Z" fill="white"/>
</g>
<g opacity="0.13">
<path d="M26.1821 27.8137C26.1821 27.8137 26.1821 27.8016 26.1821 27.7976C26.1821 27.8016 26.1821 27.8096 26.1821 27.8137C26.1821 27.6969 26.158 27.5802 26.1017 27.4796C25.8642 27.0249 25.168 27.1013 25.003 27.5682C24.9909 27.5883 24.9789 27.6165 24.9668 27.6446C24.9225 27.7372 24.8903 27.8338 24.8541 27.9304C24.8219 28.0028 24.7816 28.1034 24.7535 28.1598C24.6931 28.2644 24.6649 28.3771 24.6649 28.4978C24.673 29.2705 25.7435 29.4194 25.9487 28.6749C26.0534 28.4334 26.1379 28.1879 26.1701 27.9304C26.1781 27.8941 26.1821 27.8539 26.1821 27.8177V27.8137Z" fill="white"/>
</g>
<path d="M20.2781 34.2808C20.1372 34.2808 20.0044 34.1923 19.9521 34.0595C19.7307 33.496 19.5174 32.9608 19.1995 32.4255C18.5837 32.4899 17.964 32.4577 17.3764 32.4014C17.2034 32.7113 17.0384 33.0332 16.8653 33.3672C16.7567 33.5765 16.6439 33.7898 16.5272 34.0071C16.4427 34.1641 16.2576 34.2325 16.0886 34.1681C15.0543 33.7616 14.1528 33.0936 13.4807 32.2484C13.3841 32.1277 13.3801 31.9547 13.4686 31.8299C13.7986 31.3631 14.1407 30.8841 14.4989 30.3127C14.1287 29.8096 13.7946 29.218 13.4848 28.5137C13.368 28.5379 13.2513 28.562 13.1306 28.5902C12.6356 28.6948 12.1245 28.8035 11.5731 28.884C11.3961 28.9081 11.2311 28.7995 11.1868 28.6264C10.8689 27.4472 10.9574 26.1151 11.4483 24.6663C11.5087 24.4933 11.6898 24.3967 11.8669 24.441C12.535 24.61 13.207 24.783 13.9113 24.9561C14.193 24.3685 14.5311 23.8172 14.8893 23.2457C14.5593 22.799 14.1971 22.2839 13.8711 21.6842C13.7946 21.5434 13.8228 21.3663 13.9435 21.2576C14.7082 20.5574 15.67 19.9497 16.8009 19.4506C16.9659 19.3782 17.1591 19.4426 17.2476 19.5995C17.5776 20.1911 17.8795 20.8069 18.141 21.4307C18.8011 21.3341 19.4691 21.3099 20.1332 21.3623C20.4431 20.7626 20.769 20.1469 21.1755 19.5029C21.2721 19.35 21.4733 19.2937 21.6343 19.3782C22.4633 19.8128 23.2481 20.336 23.9645 20.9437C24.1577 21.1047 24.3428 21.2737 24.5319 21.4427C24.6285 21.5313 24.7654 21.652 24.8136 21.8412C24.8378 21.9378 24.8217 22.0384 24.7654 22.1229C24.6044 22.3643 24.4353 22.6058 24.2663 22.8513C24.045 23.1692 23.8196 23.4952 23.5862 23.8494C23.7793 24.3363 23.9766 24.8313 24.1617 25.3344C24.7573 25.3948 25.5058 25.5195 26.3067 25.8495C26.4315 25.9019 26.516 26.0186 26.524 26.1514C26.5884 27.238 26.4475 28.232 26.0894 29.1898C26.0371 29.3307 25.9083 29.4273 25.7473 29.4152L25.5139 29.4072C25.0068 29.387 24.4836 29.3669 23.9323 29.4072C23.7109 29.9183 23.393 30.4374 22.9423 31.0049C23.2441 31.5401 23.5499 32.1036 23.8236 32.7636C23.892 32.9286 23.8236 33.1177 23.6666 33.2063C22.572 33.8019 21.4492 34.1681 20.3223 34.2888C20.3102 34.2888 20.2982 34.2888 20.2861 34.2888L20.2781 34.2808ZM19.3766 31.6971C19.4933 31.6971 19.606 31.7575 19.6704 31.8581C20.0366 32.4255 20.2821 32.993 20.5034 33.5483C21.3566 33.4236 22.2058 33.1499 23.0429 32.7274C22.7813 32.1438 22.4915 31.6327 22.2098 31.1337C22.1373 31.0089 22.1535 30.8519 22.246 30.7393C22.7893 30.0793 23.1435 29.5078 23.3568 28.9444C23.4051 28.8196 23.5178 28.7311 23.6506 28.719C24.3186 28.6546 24.9263 28.6787 25.5139 28.7029C25.7554 27.9785 25.86 27.2219 25.8318 26.4089C25.0913 26.1353 24.4031 26.0467 23.8759 26.0025C23.7391 25.9904 23.6224 25.9019 23.5741 25.769C23.3568 25.1493 23.1072 24.5295 22.8658 23.9299C22.8255 23.8252 22.8336 23.7045 22.898 23.6079C23.1717 23.1813 23.4332 22.803 23.6868 22.4368C23.8075 22.2637 23.9242 22.0947 24.0369 21.9297C23.8638 21.7727 23.6868 21.6158 23.5097 21.4629C22.9141 20.9598 22.2742 20.5171 21.5981 20.1388C21.2399 20.7344 20.938 21.314 20.6483 21.8774C20.5839 22.0062 20.443 22.0786 20.3022 22.0665C19.5295 21.986 18.7487 22.0182 17.9841 22.1551C17.8231 22.1832 17.6581 22.0947 17.5977 21.9418C17.3603 21.3542 17.0907 20.7707 16.7888 20.2113C15.9517 20.6056 15.2233 21.0644 14.6196 21.5755C14.9376 22.1189 15.2837 22.5937 15.5895 23.0042C15.6781 23.1209 15.6821 23.2779 15.6057 23.3986C15.163 24.1069 14.7404 24.779 14.4265 25.4914C14.358 25.6483 14.189 25.7288 14.024 25.6886C13.3278 25.5195 12.6678 25.3545 12.0158 25.1855C11.6939 26.252 11.6214 27.238 11.7944 28.1274C12.209 28.059 12.6034 27.9745 12.9857 27.894C13.199 27.8497 13.4123 27.8014 13.6256 27.7612C13.7906 27.729 13.9556 27.8175 14.016 27.9704C14.3701 28.8276 14.7565 29.5158 15.1952 30.0632C15.2877 30.1799 15.2957 30.3408 15.2193 30.4656C14.8571 31.0572 14.519 31.5442 14.189 32.007C14.6961 32.5865 15.332 33.0574 16.0483 33.3874C16.1127 33.2666 16.1731 33.1499 16.2334 33.0332C16.4467 32.6227 16.652 32.2323 16.8693 31.85C16.9378 31.7293 17.0706 31.6609 17.2114 31.6729C17.8916 31.7454 18.62 31.7977 19.3202 31.6931C19.3363 31.6931 19.3565 31.6931 19.3726 31.6931L19.3766 31.6971Z" fill="white"/>
<path d="M18.4107 28.3166C18.1088 28.3166 17.807 28.2562 17.5253 28.1315C17.2758 28.0188 17.0947 27.882 16.9739 27.7049C16.8089 27.4675 16.7687 27.1938 16.7526 26.9805C16.6962 26.2521 16.8733 25.588 17.2476 25.1091C17.7144 24.5135 18.4871 24.2519 19.1351 24.4732C19.1834 24.4893 19.2236 24.5175 19.2598 24.5497C19.9319 24.7831 20.4269 25.4592 20.4672 26.1997C20.5074 26.9161 20.1372 27.6244 19.5214 28.0108C19.1914 28.22 18.801 28.3247 18.4066 28.3247L18.4107 28.3166ZM18.6602 25.089C18.3503 25.089 18.0203 25.254 17.803 25.5357C17.5373 25.8778 17.4126 26.3728 17.4528 26.9241C17.4609 27.0489 17.481 27.2059 17.5494 27.3024C17.5977 27.3709 17.6822 27.4312 17.811 27.4876C18.2497 27.6807 18.7608 27.6526 19.1511 27.4071C19.5455 27.1576 19.7951 26.6827 19.7709 26.2279C19.7468 25.7691 19.4329 25.3345 19.0264 25.1976L18.9781 25.1816C18.9017 25.1574 18.8413 25.1292 18.793 25.097C18.7487 25.089 18.7085 25.085 18.6642 25.085L18.6602 25.089Z" fill="white"/>
<g opacity="0.13">
<path d="M32.1703 44.0201C31.5989 43.4326 30.9309 42.4023 30.3513 41.2231C29.804 40.052 29.5303 39.6093 29.2969 38.1726C29.1963 37.4401 29.1842 37.6051 29.1641 36.8365C29.2285 36.5024 29.2526 36.1282 28.979 35.8786C28.492 35.3756 27.6066 35.782 27.6549 36.4783C27.6469 36.5427 27.663 36.6071 27.675 36.6674C27.6791 36.7117 27.6871 36.756 27.6911 36.8002C27.6911 36.7841 27.6871 36.7962 27.6911 36.8727C27.6629 37.1866 27.832 38.3778 27.832 38.3456C27.9487 39.4846 28.3632 40.551 28.8422 41.5813C29.4217 42.853 30.1179 44.0886 31.0636 45.1269C31.8081 45.8352 32.8787 44.7687 32.1703 44.0201Z" fill="black"/>
</g>
<g opacity="0.13">
<path d="M46.0065 49.6101C44.94 49.8918 44.5174 49.8637 43.2055 49.7952C41.7365 49.6584 40.9759 49.6624 39.4989 49.0588C39.4828 49.0507 39.4667 49.0427 39.4426 49.0306C38.859 48.6684 38.0864 49.3284 38.3922 49.9562C38.5492 50.3949 39.0884 50.4432 39.4627 50.6162C41.1248 51.1917 42.9237 51.1998 44.6623 51.3085C45.0889 51.3004 45.5155 51.232 45.9341 51.1595C46.1796 51.0952 46.4653 51.0952 46.6625 50.9221C47.3185 50.4472 46.7832 49.3888 46.0105 49.6101H46.0065Z" fill="black"/>
</g>
</g>
<defs>
<clipPath id="clip0_1_11177">
<rect width="78" height="79" fill="white" transform="translate(0 0.000488281)"/>
</clipPath>
</defs>
</svg>
