<svg width="128" height="113" viewBox="0 0 128 113" fill="none" xmlns="http://www.w3.org/2000/svg">
<mask id="mask0_1_12133" style="mask-type:alpha" maskUnits="userSpaceOnUse" x="14" y="20" width="86" height="76">
<path d="M94.5545 39.9893C101.676 51.5031 99.989 66.8237 93.6345 77.6631C87.2723 88.4348 76.1811 94.7962 63.8617 95.77C51.5424 96.7439 37.8568 92.3364 27.7566 81.5038C17.6565 70.6712 11.0803 53.4842 16.2782 40.9966C21.4762 28.5091 38.3868 20.7917 54.8415 20.7849C71.2962 20.7781 87.3641 28.4787 94.5545 39.9893Z" fill="#DDDDDD"/>
</mask>
<g mask="url(#mask0_1_12133)">
<line x1="153.914" y1="-194.414" x2="-531.688" y2="250.604" stroke="#D0D0D0"/>
<line x1="155.88" y1="-191.384" x2="-529.722" y2="253.634" stroke="#D0D0D0"/>
<line x1="157.847" y1="-188.355" x2="-527.755" y2="256.664" stroke="#D0D0D0"/>
<line x1="159.814" y1="-185.325" x2="-525.788" y2="259.693" stroke="#D0D0D0"/>
<line x1="161.779" y1="-182.294" x2="-523.823" y2="262.724" stroke="#D0D0D0"/>
<line x1="163.747" y1="-179.265" x2="-521.855" y2="265.753" stroke="#D0D0D0"/>
<line x1="165.714" y1="-176.236" x2="-519.888" y2="268.783" stroke="#D0D0D0"/>
<line x1="167.68" y1="-173.206" x2="-517.922" y2="271.812" stroke="#D0D0D0"/>
<line x1="169.645" y1="-170.176" x2="-515.956" y2="274.843" stroke="#D0D0D0"/>
<line x1="171.613" y1="-167.147" x2="-513.989" y2="277.872" stroke="#D0D0D0"/>
<line x1="173.58" y1="-164.117" x2="-512.022" y2="280.901" stroke="#D0D0D0"/>
<line x1="175.546" y1="-161.087" x2="-510.056" y2="283.931" stroke="#D0D0D0"/>
<line x1="177.512" y1="-158.056" x2="-508.09" y2="286.962" stroke="#D0D0D0"/>
<line x1="179.48" y1="-155.028" x2="-506.122" y2="289.991" stroke="#D0D0D0"/>
<line x1="181.447" y1="-151.998" x2="-504.155" y2="293.02" stroke="#D0D0D0"/>
<line x1="183.413" y1="-148.968" x2="-502.189" y2="296.05" stroke="#D0D0D0"/>
<line x1="185.378" y1="-145.938" x2="-500.224" y2="299.081" stroke="#D0D0D0"/>
<line x1="187.363" y1="-142.883" x2="-498.239" y2="302.135" stroke="#D0D0D0"/>
<line x1="189.33" y1="-139.853" x2="-496.272" y2="305.165" stroke="#D0D0D0"/>
<line x1="191.296" y1="-136.823" x2="-494.306" y2="308.195" stroke="#D0D0D0"/>
<line x1="193.261" y1="-133.793" x2="-492.341" y2="311.225" stroke="#D0D0D0"/>
<line x1="195.229" y1="-130.764" x2="-490.373" y2="314.254" stroke="#D0D0D0"/>
<line x1="197.195" y1="-127.734" x2="-488.407" y2="317.284" stroke="#D0D0D0"/>
<line x1="199.162" y1="-124.704" x2="-486.44" y2="320.314" stroke="#D0D0D0"/>
<line x1="201.128" y1="-121.674" x2="-484.474" y2="323.344" stroke="#D0D0D0"/>
<line x1="203.095" y1="-118.645" x2="-482.507" y2="326.373" stroke="#D0D0D0"/>
<line x1="205.061" y1="-115.615" x2="-480.541" y2="329.403" stroke="#D0D0D0"/>
<line x1="207.028" y1="-112.585" x2="-478.574" y2="332.433" stroke="#D0D0D0"/>
<line x1="208.994" y1="-109.555" x2="-476.608" y2="335.463" stroke="#D0D0D0"/>
<line x1="210.961" y1="-106.526" x2="-474.641" y2="338.492" stroke="#D0D0D0"/>
<line x1="212.928" y1="-103.496" x2="-472.674" y2="341.522" stroke="#D0D0D0"/>
<line x1="214.895" y1="-100.467" x2="-470.707" y2="344.552" stroke="#D0D0D0"/>
<line x1="216.861" y1="-97.437" x2="-468.741" y2="347.581" stroke="#D0D0D0"/>
<line x1="218.828" y1="-94.4073" x2="-466.774" y2="350.611" stroke="#D0D0D0"/>
<line x1="220.794" y1="-91.3775" x2="-464.808" y2="353.641" stroke="#D0D0D0"/>
<line x1="222.761" y1="-88.3477" x2="-462.841" y2="356.67" stroke="#D0D0D0"/>
<line x1="224.727" y1="-85.3179" x2="-460.875" y2="359.7" stroke="#D0D0D0"/>
<line x1="226.694" y1="-82.2884" x2="-458.908" y2="362.73" stroke="#D0D0D0"/>
<line x1="228.661" y1="-79.2586" x2="-456.941" y2="365.76" stroke="#D0D0D0"/>
<line x1="230.627" y1="-76.2288" x2="-454.975" y2="368.789" stroke="#D0D0D0"/>
<line x1="232.594" y1="-73.199" x2="-453.008" y2="371.819" stroke="#D0D0D0"/>
<line x1="234.56" y1="-70.1692" x2="-451.042" y2="374.849" stroke="#D0D0D0"/>
<line x1="236.527" y1="-67.1397" x2="-449.075" y2="377.878" stroke="#D0D0D0"/>
<line x1="238.493" y1="-64.1097" x2="-447.109" y2="380.909" stroke="#D0D0D0"/>
<line x1="240.46" y1="-61.0799" x2="-445.142" y2="383.938" stroke="#D0D0D0"/>
<line x1="242.426" y1="-58.0503" x2="-443.176" y2="386.968" stroke="#D0D0D0"/>
<line x1="244.393" y1="-55.0208" x2="-441.209" y2="389.997" stroke="#D0D0D0"/>
<line x1="246.359" y1="-51.9908" x2="-439.243" y2="393.027" stroke="#D0D0D0"/>
<line x1="248.326" y1="-48.9612" x2="-437.276" y2="396.057" stroke="#D0D0D0"/>
<line x1="250.292" y1="-45.9314" x2="-435.31" y2="399.087" stroke="#D0D0D0"/>
<line x1="252.259" y1="-42.9019" x2="-433.343" y2="402.116" stroke="#D0D0D0"/>
<line x1="254.226" y1="-39.8719" x2="-431.376" y2="405.146" stroke="#D0D0D0"/>
<line x1="256.193" y1="-36.8423" x2="-429.409" y2="408.176" stroke="#D0D0D0"/>
<line x1="258.159" y1="-33.813" x2="-427.442" y2="411.205" stroke="#D0D0D0"/>
<line x1="260.126" y1="-30.783" x2="-425.476" y2="414.235" stroke="#D0D0D0"/>
<line x1="262.092" y1="-27.753" x2="-423.51" y2="417.265" stroke="#D0D0D0"/>
<line x1="264.059" y1="-24.7234" x2="-421.543" y2="420.295" stroke="#D0D0D0"/>
<line x1="266.025" y1="-21.6934" x2="-419.577" y2="423.325" stroke="#D0D0D0"/>
<line x1="267.992" y1="-18.6641" x2="-417.61" y2="426.354" stroke="#D0D0D0"/>
<line x1="269.959" y1="-15.6343" x2="-415.643" y2="429.384" stroke="#D0D0D0"/>
<line x1="271.925" y1="-12.6045" x2="-413.677" y2="432.414" stroke="#D0D0D0"/>
<line x1="273.891" y1="-9.5745" x2="-411.711" y2="435.444" stroke="#D0D0D0"/>
<line x1="275.858" y1="-6.5452" x2="-409.744" y2="438.473" stroke="#D0D0D0"/>
<line x1="277.825" y1="-3.51542" x2="-407.777" y2="441.503" stroke="#D0D0D0"/>
<line x1="279.791" y1="-0.485633" x2="-405.811" y2="444.533" stroke="#D0D0D0"/>
<line x1="281.758" y1="2.5444" x2="-403.844" y2="447.563" stroke="#D0D0D0"/>
<line x1="283.724" y1="5.57369" x2="-401.877" y2="450.592" stroke="#D0D0D0"/>
<line x1="321.089" y1="63.1386" x2="-364.513" y2="508.157" stroke="#D0D0D0"/>
<line x1="285.691" y1="8.60348" x2="-399.911" y2="453.622" stroke="#D0D0D0"/>
<line x1="323.056" y1="66.1682" x2="-362.546" y2="511.186" stroke="#D0D0D0"/>
<line x1="287.657" y1="11.6335" x2="-397.945" y2="456.652" stroke="#D0D0D0"/>
<line x1="325.023" y1="69.1977" x2="-360.579" y2="514.216" stroke="#D0D0D0"/>
<line x1="289.624" y1="14.6633" x2="-395.978" y2="459.681" stroke="#D0D0D0"/>
<line x1="326.989" y1="72.2277" x2="-358.613" y2="517.246" stroke="#D0D0D0"/>
<line x1="291.59" y1="17.6928" x2="-394.012" y2="462.711" stroke="#D0D0D0"/>
<line x1="328.956" y1="75.2573" x2="-356.646" y2="520.275" stroke="#D0D0D0"/>
<line x1="293.557" y1="20.7224" x2="-392.045" y2="465.741" stroke="#D0D0D0"/>
<line x1="330.922" y1="78.2871" x2="-354.68" y2="523.305" stroke="#D0D0D0"/>
<line x1="295.524" y1="23.7524" x2="-390.078" y2="468.771" stroke="#D0D0D0"/>
<line x1="332.889" y1="81.3166" x2="-352.713" y2="526.335" stroke="#D0D0D0"/>
<line x1="297.49" y1="26.7822" x2="-388.112" y2="471.8" stroke="#D0D0D0"/>
<line x1="334.855" y1="84.3466" x2="-350.747" y2="529.365" stroke="#D0D0D0"/>
<line x1="299.457" y1="29.8117" x2="-386.145" y2="474.83" stroke="#D0D0D0"/>
<line x1="336.822" y1="87.3762" x2="-348.78" y2="532.394" stroke="#D0D0D0"/>
<line x1="301.424" y1="32.8413" x2="-384.178" y2="477.859" stroke="#D0D0D0"/>
<line x1="338.788" y1="90.406" x2="-346.814" y2="535.424" stroke="#D0D0D0"/>
<line x1="303.39" y1="35.8713" x2="-382.212" y2="480.889" stroke="#D0D0D0"/>
<line x1="340.755" y1="93.4355" x2="-344.847" y2="538.454" stroke="#D0D0D0"/>
<line x1="305.357" y1="38.9008" x2="-380.245" y2="483.919" stroke="#D0D0D0"/>
<line x1="307.323" y1="41.9306" x2="-378.279" y2="486.949" stroke="#D0D0D0"/>
<line x1="309.29" y1="44.9602" x2="-376.312" y2="489.978" stroke="#D0D0D0"/>
<line x1="311.257" y1="47.9897" x2="-374.345" y2="493.008" stroke="#D0D0D0"/>
<line x1="313.222" y1="51.0202" x2="-372.38" y2="496.038" stroke="#D0D0D0"/>
<line x1="315.19" y1="54.0493" x2="-370.412" y2="499.067" stroke="#D0D0D0"/>
<line x1="317.156" y1="57.0791" x2="-368.446" y2="502.097" stroke="#D0D0D0"/>
<line x1="319.122" y1="60.1091" x2="-366.48" y2="505.127" stroke="#D0D0D0"/>
</g>
<path d="M108.57 38.9896C115.691 50.5033 114.004 65.8239 107.65 76.6633C101.288 87.4351 90.1963 93.7965 77.877 94.7703C65.5576 95.7441 51.872 91.3367 41.7719 80.504C31.6717 69.6714 25.0955 52.4845 30.2935 39.9969C35.4914 27.5093 52.4021 19.792 68.8568 19.7852C85.3115 19.7784 101.379 27.479 108.57 38.9896Z" fill="#DDDDDD"/>
<path d="M92.0108 20.1289C104.477 25.4083 111.956 38.8854 113.036 51.4037C114.07 63.8711 108.696 75.4731 99.2063 83.3884C89.7162 91.3038 76.0008 95.6176 61.4974 92.6158C46.994 89.614 31.6934 79.3901 28.7172 66.1954C25.7409 53.0007 35.0798 36.9286 48.5034 27.412C61.927 17.8955 79.4899 14.8921 92.0108 20.1289Z" fill="#34CE72"/>
<path d="M110.281 67.7465C108.966 81.2877 98.5761 92.2911 87.2133 96.8175C75.904 101.278 63.5427 99.2897 53.4155 92.273C43.2858 85.2545 35.2886 73.1268 33.8915 58.1958C33.1926 50.7265 34.1227 42.5602 36.6584 35.4448C39.1951 28.3266 43.3285 22.2866 49.0156 19.0289C54.7018 15.7717 61.9608 15.2763 69.4146 16.908C76.8662 18.5393 84.4888 22.2922 90.8781 27.4963C103.664 37.9108 111.541 54.1529 110.281 67.7465Z" stroke="black" stroke-width="0.5"/>
<path d="M65.0047 75.513C64.9195 72.9893 64.2856 70.484 63.1625 68.2242C61.2943 64.4664 58.1361 61.4594 56.3531 57.6607C54.2662 53.2116 54.9742 47.7997 57.3206 44.3802C60.6011 39.604 66.4986 37.5113 70.9912 37.7715C73.8231 37.9351 82.1522 38.8531 84.7507 47.2496C87.3565 55.6759 81.118 61.8014 78.8198 65.3622C77.2408 67.8116 75.2725 70.183 75.013 73.0896C74.9537 73.7586 74.9574 74.4723 74.583 75.0298C74.1271 75.7063 73.256 75.933 72.4627 76.1115C71.0171 76.4348 69.5307 76.7619 68.0702 76.5277C66.6098 76.2936 65.1567 75.3569 65.0084 75.513H65.0047Z" fill="white"/>
<path d="M69.1081 76.9328C68.7448 76.9328 68.3779 76.9068 68.0146 76.851C67.1324 76.7098 66.2502 76.3232 65.6682 76.0668C65.4532 75.9739 65.1938 75.8586 65.0826 75.8289C65.0196 75.8438 64.9491 75.8438 64.8861 75.8177C64.7675 75.7694 64.6859 75.6579 64.6822 75.5278C64.6007 73.0598 63.9742 70.5843 62.8733 68.3728C61.98 66.5775 60.7605 64.916 59.5817 63.3103C58.3103 61.5783 56.9944 59.7904 56.064 57.8019C54.0697 53.5497 54.4775 47.9595 57.0611 44.2017C60.5084 39.1802 66.5542 37.1953 71.0134 37.4518C75.2132 37.6934 82.6229 39.2768 85.062 47.1566C87.2935 54.3637 83.1827 59.9317 80.4656 63.6114C79.9504 64.3102 79.4648 64.9681 79.0978 65.5405C78.8161 65.9754 78.5233 66.414 78.2342 66.8377C76.9146 68.7928 75.5467 70.8111 75.3392 73.123C75.3317 73.2196 75.3244 73.3163 75.3169 73.4166C75.2688 74.0336 75.2206 74.6729 74.8536 75.2156C74.3421 75.9739 73.4265 76.234 72.5369 76.4347C71.473 76.6726 70.298 76.9365 69.1155 76.9365L69.1081 76.9328ZM65.3124 75.223C65.4718 75.2751 65.6682 75.3606 65.9277 75.4721C66.5133 75.7285 67.3177 76.0816 68.1184 76.208C69.5381 76.4385 70.9874 76.1114 72.3923 75.7954C73.1893 75.617 73.938 75.4089 74.3161 74.8476C74.5867 74.4462 74.6275 73.9184 74.6683 73.3609C74.6757 73.2605 74.6831 73.1602 74.6942 73.0598C74.9166 70.5806 76.3326 68.4917 77.6967 66.4697C77.9821 66.0497 78.2749 65.6148 78.5529 65.1874C78.931 64.6001 79.424 63.9311 79.9467 63.2249C82.5896 59.6492 86.5818 54.2411 84.4467 47.3462C82.1226 39.8418 75.0093 38.329 70.9763 38.0948C66.8284 37.8569 60.8754 39.7786 57.5912 44.566C55.1336 48.1453 54.7481 53.4717 56.6497 57.5268C57.5541 59.4559 58.8515 61.2214 60.1044 62.9238C61.3017 64.5518 62.536 66.2355 63.4553 68.0828C64.5525 70.2907 65.1974 72.755 65.3198 75.223H65.3124Z" fill="black"/>
<path d="M76.4363 71.7032C76.4363 71.7032 63.3551 71.5322 63.344 71.6549C63.1587 74.3497 63.3255 77.0704 63.8333 79.7169C64.0928 81.0661 64.6822 84.2441 69.4824 84.5266C73.2485 84.7496 75.0092 82.6458 75.5355 80.4454C76.136 77.9439 76.4548 74.7139 76.44 71.7032H76.4363Z" fill="white"/>
<path d="M70.0385 84.8684C69.8531 84.8684 69.6604 84.861 69.4602 84.8499C64.4338 84.5525 63.7926 81.2184 63.5183 79.7986C62.9993 77.1001 62.8325 74.3607 63.0216 71.6325C63.0549 71.3129 63.2514 71.3092 63.9038 71.298C64.2633 71.2906 64.7786 71.2869 65.3939 71.2869C66.4837 71.2869 67.9961 71.2943 69.8976 71.3092C73.1336 71.3352 76.4067 71.3798 76.44 71.3798C76.6142 71.3798 76.7589 71.5247 76.7589 71.6994C76.7774 74.8142 76.4437 78.0293 75.847 80.5197C75.5282 81.8578 74.3272 84.8647 70.0385 84.8647V84.8684ZM63.6443 71.9522C63.4886 74.5243 63.6591 77.1187 64.1447 79.6573C64.4153 81.0586 64.9676 83.9392 69.4936 84.2068C73.76 84.4633 74.9166 81.6087 75.2131 80.371C75.7803 78.0108 76.1028 74.9852 76.1065 72.0228C71.5212 71.9633 64.9862 71.9039 63.6406 71.9522H63.6443Z" fill="black"/>
<path d="M72.0994 73.9854C69.5825 73.9854 67.0582 73.9185 64.5561 73.7846C64.4968 73.7846 64.4523 73.7289 64.456 73.6731C64.456 73.6137 64.5079 73.5653 64.5672 73.5728C68.0738 73.7623 71.6323 73.8181 75.1426 73.74C75.2093 73.74 75.2501 73.7846 75.2538 73.8441C75.2575 73.9036 75.2093 73.9519 75.15 73.9556C74.1381 73.9779 73.1187 73.9891 72.1031 73.9891L72.0994 73.9854Z" fill="black"/>
<path d="M68.3518 75.9849C67.1397 75.9849 65.9276 75.9626 64.7229 75.918C64.6636 75.918 64.6191 75.866 64.6191 75.8065C64.6191 75.7471 64.6673 75.7062 64.7303 75.7025C68.1294 75.8251 71.5767 75.7731 74.9721 75.5501C75.0314 75.5426 75.0833 75.591 75.087 75.6504C75.0907 75.7099 75.0463 75.7619 74.987 75.7656C72.7888 75.9106 70.5685 75.9849 68.3518 75.9849Z" fill="black"/>
<path d="M64.9638 78.0181C64.9045 78.0181 64.8563 77.9698 64.8563 77.914C64.8563 77.8546 64.9008 77.8062 64.9601 77.8025L74.7423 77.5684C74.7979 77.5684 74.8498 77.613 74.8535 77.6724C74.8535 77.7319 74.809 77.7802 74.7497 77.7839L64.9675 78.0181H64.9638Z" fill="black"/>
<path d="M68.4742 79.925C67.4474 79.925 66.4207 79.9213 65.4013 79.9138C65.342 79.9138 65.2938 79.8655 65.2938 79.806C65.2938 79.7466 65.342 79.6982 65.4013 79.6982C68.3519 79.7243 71.347 79.7131 74.3013 79.6648C74.3606 79.6648 74.4087 79.7131 74.4087 79.7726C74.4087 79.8321 74.3606 79.8804 74.3013 79.8804C72.3663 79.9101 70.4129 79.925 68.4668 79.925H68.4742Z" fill="black"/>
<path d="M69.0784 81.6608C68.0442 81.6608 67.01 81.6459 65.9833 81.6125C65.924 81.6125 65.8758 81.5604 65.8795 81.501C65.8795 81.4415 65.9314 81.3969 65.9907 81.3969C68.5743 81.4787 71.1913 81.4564 73.7749 81.3337C73.8416 81.33 73.8861 81.3783 73.8861 81.4378C73.8861 81.4972 73.8416 81.5493 73.7823 81.5493C72.2218 81.6236 70.6464 81.6608 69.0747 81.6608H69.0784Z" fill="black"/>
<path d="M69.9272 83.1957C69.0339 83.1957 68.1406 83.1697 67.2509 83.1214C67.1916 83.1214 67.1471 83.0656 67.1509 83.0062C67.1509 82.9467 67.199 82.8947 67.2657 82.9058C68.9041 82.9987 70.5611 83.0062 72.1995 82.9281C72.2625 82.9207 72.3107 82.9727 72.3107 83.0322C72.3107 83.0917 72.2662 83.1437 72.2069 83.1437C71.4507 83.1809 70.6871 83.1995 69.9272 83.1995V83.1957Z" fill="black"/>
<g opacity="0.13">
<path d="M76.2324 71.8296C75.9433 71.0714 74.7794 71.313 74.7868 72.1195C74.594 74.2456 74.5755 75.7844 74.405 77.2563C74.2678 78.0926 73.9343 78.8694 73.6451 79.6574C73.3894 80.293 72.129 81.9024 70.8836 82.4525C70.4202 82.7053 68.8856 83.0658 68.085 82.7127C67.6105 82.5789 67.2176 82.341 65.9869 81.672C65.0158 81.133 64.1891 82.5417 65.1344 83.1327C65.6607 83.4598 66.1797 83.7981 66.6875 84.1549C66.6245 84.114 66.5504 84.0434 66.5022 84.0136C66.9507 84.3816 67.4919 84.6344 68.0516 84.7868C71.1801 85.4298 73.6451 83.7274 75.0982 81.0364C75.6431 79.925 75.9174 78.4346 75.9989 77.8659C76.1509 76.8846 76.1286 76.9441 76.1731 75.855C76.1731 75.6878 76.225 75.4685 76.1657 75.264C76.1879 74.8143 76.2028 74.372 76.2287 73.9371C76.2473 73.413 76.2621 72.8889 76.2881 72.3648C76.2955 72.1827 76.3288 71.9894 76.2362 71.8259L76.2324 71.8296Z" fill="black"/>
</g>
<path d="M70.2312 33.7201C70.0533 33.7201 69.9124 33.5788 69.9087 33.4004C69.8902 31.8951 69.9532 30.3674 70.0867 28.8695C70.1015 28.6911 70.2646 28.561 70.4351 28.5759C70.613 28.5907 70.7427 28.7506 70.7279 28.9252C70.5945 30.4046 70.5352 31.9062 70.55 33.393C70.55 33.5714 70.4091 33.7163 70.2312 33.7201Z" fill="black"/>
<path d="M94.9257 53.6948C94.9257 53.6948 94.9147 53.6948 94.9109 53.6948L90.7408 53.5164C90.5629 53.509 90.4257 53.3566 90.4331 53.1782C90.4406 52.9998 90.5888 52.8622 90.7705 52.8697L94.9406 53.0481C95.1185 53.0555 95.2557 53.2079 95.2483 53.3863C95.2409 53.561 95.0963 53.6948 94.9257 53.6948Z" fill="black"/>
<path d="M87.8977 69.6701C87.8347 69.6701 87.7754 69.6515 87.7198 69.6144L84.2466 67.2913C84.0983 67.1909 84.0575 66.9902 84.1576 66.8416C84.2577 66.6929 84.4578 66.652 84.6061 66.7523L88.0793 69.0754C88.2276 69.1758 88.2684 69.3765 88.1683 69.5252C88.1053 69.6181 88.0052 69.6701 87.9014 69.6701H87.8977Z" fill="black"/>
<path d="M53.8955 39.2211C53.8177 39.2211 53.7399 39.1951 53.6769 39.1356C52.5315 38.0912 51.4713 36.9464 50.515 35.7235C50.4038 35.5823 50.4297 35.3816 50.5706 35.2701C50.7114 35.1586 50.9116 35.1846 51.0228 35.3258C51.9532 36.5189 52.9911 37.6414 54.1068 38.6599C54.2403 38.7788 54.2477 38.9832 54.1291 39.1171C54.0661 39.1877 53.9771 39.2211 53.8918 39.2211H53.8955Z" fill="black"/>
<path d="M45.4849 53.6314C45.3144 53.6314 45.1698 53.4939 45.1624 53.3229C45.155 53.1445 45.2922 52.9921 45.4701 52.9847L49.6402 52.8063C49.8181 52.7951 49.9701 52.9364 49.9775 53.1148C49.9849 53.2932 49.8478 53.4456 49.6698 53.453L45.4997 53.6314C45.4997 53.6314 45.4886 53.6314 45.4849 53.6314Z" fill="black"/>
<path d="M51.805 69.6069C51.7012 69.6069 51.5974 69.5549 51.5381 69.4619C51.438 69.3133 51.4788 69.1125 51.627 69.0122L55.1003 66.6891C55.2486 66.5888 55.4487 66.6297 55.5488 66.7783C55.6489 66.927 55.6081 67.1277 55.4598 67.2281L51.9866 69.5511C51.931 69.5883 51.868 69.6069 51.8087 69.6069H51.805Z" fill="black"/>
<path d="M76.2602 59.4387C79.5723 56.1176 79.5723 50.733 76.2602 47.4118C72.9482 44.0907 67.5783 44.0907 64.2662 47.4119C60.9541 50.733 60.9541 56.1176 64.2662 59.4387C67.5783 62.7599 72.9482 62.7599 76.2602 59.4387Z" fill="#F9A11F"/>
<path d="M70.2646 62.2549C65.4125 62.2549 61.4611 58.2964 61.4611 53.4273C61.4611 48.5581 65.4088 44.5996 70.2646 44.5996C75.1205 44.5996 79.0682 48.5581 79.0682 53.4273C79.0682 58.2964 75.1205 62.2549 70.2646 62.2549ZM70.2646 45.2464C65.7646 45.2464 62.106 48.9149 62.106 53.4273C62.106 57.9396 65.7646 61.6082 70.2646 61.6082C74.7646 61.6082 78.4232 57.9396 78.4232 53.4273C78.4232 48.9149 74.7646 45.2464 70.2646 45.2464Z" fill="black"/>
<path d="M72.8902 55.7094C74.3103 54.2854 74.3103 51.9768 72.8902 50.5528C71.4701 49.1288 69.1678 49.1288 67.7477 50.5528C66.3276 51.9767 66.3276 54.2855 67.7477 55.7094C69.1677 57.1334 71.4702 57.1334 72.8902 55.7094Z" fill="white"/>
<path d="M70.3203 57.0995C68.137 57.0995 66.3615 55.3191 66.3615 53.1298C66.3615 50.9406 68.137 49.1602 70.3203 49.1602C72.5036 49.1602 74.2791 50.9406 74.2791 53.1298C74.2791 55.3191 72.5036 57.0995 70.3203 57.0995ZM70.3203 49.8032C68.4929 49.8032 67.0064 51.2937 67.0064 53.1261C67.0064 54.9585 68.4929 56.449 70.3203 56.449C72.1477 56.449 73.6341 54.9585 73.6341 53.1261C73.6341 51.2937 72.1477 49.8032 70.3203 49.8032Z" fill="black"/>
<path d="M70.2646 53.7506C70.1831 53.7506 70.1015 53.7209 70.0385 53.6577C69.9125 53.5313 69.9125 53.3269 70.0385 53.2005L86.9784 36.0767C87.1044 35.9503 87.3083 35.9503 87.4343 36.0767C87.5603 36.2031 87.5603 36.4075 87.4343 36.5339L70.4944 53.6577C70.4314 53.7209 70.3499 53.7543 70.2646 53.7543V53.7506Z" fill="black"/>
<path d="M81.0958 42.4956L85.6033 37.9758L89.095 38.9422L84.5913 43.4583L81.0958 42.4956Z" fill="white"/>
<path d="M84.5913 43.7818C84.5616 43.7818 84.5357 43.778 84.506 43.7706L81.0143 42.8079C80.9031 42.7782 80.8178 42.689 80.7882 42.5775C80.7585 42.466 80.7882 42.347 80.8734 42.2653L85.3808 37.7455C85.4623 37.6637 85.581 37.6303 85.6959 37.6637L89.1877 38.6264C89.2989 38.6561 89.3841 38.7453 89.4138 38.8569C89.4434 38.9684 89.4138 39.0873 89.3285 39.1691L84.8211 43.6888C84.7581 43.752 84.6766 43.7818 84.5913 43.7818ZM81.7186 42.3285L84.4949 43.0941L88.476 39.1022L85.6996 38.3365L81.7186 42.3285Z" fill="black"/>
<path d="M84.6136 34.4487L80.1099 38.9685L81.0699 42.4698L85.5773 37.9501L84.6136 34.4487Z" fill="white"/>
<path d="M81.0699 42.7931C81.044 42.7931 81.0143 42.7931 80.9883 42.7819C80.8771 42.7522 80.7919 42.6667 80.7585 42.5552L79.7985 39.0539C79.7688 38.9424 79.7985 38.8234 79.88 38.7379L84.3874 34.2182C84.469 34.1364 84.5876 34.1067 84.6988 34.1327C84.81 34.1624 84.8953 34.2479 84.9286 34.3594L85.8887 37.8608C85.9184 37.9723 85.8887 38.0912 85.8071 38.1767L81.3034 42.6964C81.2404 42.7596 81.1588 42.7894 81.0736 42.7894L81.0699 42.7931ZM80.4694 39.0613L81.233 41.8453L85.214 37.8533L84.4505 35.0693L80.4694 39.0613Z" fill="black"/>
<g opacity="0.13">
<path d="M85.3142 38.2027C84.4097 38.9683 83.5831 39.8195 82.7083 40.6187C82.4711 40.8305 82.2227 41.0312 81.9818 41.2431C81.8484 41.3695 81.6667 41.4698 81.6111 41.652C81.3109 42.2838 82.1857 42.8674 82.6638 42.3656C83.5386 41.6297 84.343 40.8157 85.1659 40.0202C85.4662 39.734 85.7664 39.4478 86.0778 39.1728C86.1964 39.0613 86.3521 38.9758 86.4002 38.8085C86.6857 38.1172 85.7775 37.634 85.3105 38.2027H85.3142Z" fill="black"/>
</g>
</svg>
