<svg width="609" height="675" viewBox="0 0 609 675" fill="none" xmlns="http://www.w3.org/2000/svg">
<mask id="mask0_1_11026" style="mask-type:alpha" maskUnits="userSpaceOnUse" x="100" y="101" width="495" height="486">
<path d="M449.145 136.778C529.749 179.469 592.203 259.13 594.699 340.481C596.528 421.674 539.224 504.047 462.539 548.686C386.265 593.069 290.867 600.132 220.894 561.718C150.509 523.56 105.548 439.925 101.217 352.85C96.8855 265.775 133.339 174.592 201.228 131.399C268.705 88.4621 368.284 93.6736 449.145 136.778Z" fill="#D9D9D9"/>
</mask>
<g mask="url(#mask0_1_11026)">
<line x1="111.217" y1="957.589" x2="916.339" y2="492.752" stroke="#D0D0D0"/>
<line x1="106.668" y1="949.708" x2="911.789" y2="484.871" stroke="#D0D0D0"/>
<line x1="102.119" y1="941.829" x2="907.24" y2="476.992" stroke="#D0D0D0"/>
<line x1="97.5678" y1="933.949" x2="902.689" y2="469.112" stroke="#D0D0D0"/>
<line x1="93.0207" y1="926.068" x2="898.142" y2="461.232" stroke="#D0D0D0"/>
<line x1="88.4695" y1="918.188" x2="893.591" y2="453.352" stroke="#D0D0D0"/>
<line x1="83.9203" y1="910.308" x2="889.042" y2="445.471" stroke="#D0D0D0"/>
<line x1="79.3712" y1="902.427" x2="884.492" y2="437.59" stroke="#D0D0D0"/>
<line x1="74.822" y1="894.548" x2="879.943" y2="429.711" stroke="#D0D0D0"/>
<line x1="70.2708" y1="886.668" x2="875.392" y2="421.831" stroke="#D0D0D0"/>
<line x1="65.7217" y1="878.787" x2="870.843" y2="413.951" stroke="#D0D0D0"/>
<line x1="61.1725" y1="870.907" x2="866.294" y2="406.071" stroke="#D0D0D0"/>
<line x1="56.6254" y1="863.027" x2="861.747" y2="398.19" stroke="#D0D0D0"/>
<line x1="52.0722" y1="855.147" x2="857.193" y2="390.31" stroke="#D0D0D0"/>
<line x1="47.523" y1="847.267" x2="852.644" y2="382.43" stroke="#D0D0D0"/>
<line x1="42.9739" y1="839.387" x2="848.095" y2="374.55" stroke="#D0D0D0"/>
<line x1="38.4267" y1="831.505" x2="843.548" y2="366.669" stroke="#D0D0D0"/>
<line x1="33.8736" y1="823.625" x2="838.995" y2="358.789" stroke="#D0D0D0"/>
<line x1="29.3244" y1="815.745" x2="834.446" y2="350.908" stroke="#D0D0D0"/>
<line x1="24.7752" y1="807.866" x2="829.897" y2="343.029" stroke="#D0D0D0"/>
<line x1="20.2281" y1="799.984" x2="825.349" y2="335.147" stroke="#D0D0D0"/>
<line x1="15.6769" y1="792.105" x2="820.798" y2="327.268" stroke="#D0D0D0"/>
<line x1="11.1258" y1="784.225" x2="816.247" y2="319.388" stroke="#D0D0D0"/>
<line x1="6.5766" y1="776.346" x2="811.698" y2="311.509" stroke="#D0D0D0"/>
<line x1="2.02942" y1="768.465" x2="807.151" y2="303.628" stroke="#D0D0D0"/>
<line x1="-2.52173" y1="760.585" x2="802.6" y2="295.749" stroke="#D0D0D0"/>
<line x1="-7.07291" y1="752.704" x2="798.048" y2="287.868" stroke="#D0D0D0"/>
<line x1="-11.622" y1="744.825" x2="793.499" y2="279.988" stroke="#D0D0D0"/>
<line x1="-16.1692" y1="736.944" x2="788.952" y2="272.107" stroke="#D0D0D0"/>
<line x1="-20.7204" y1="729.065" x2="784.401" y2="264.228" stroke="#D0D0D0"/>
<line x1="-25.2695" y1="721.185" x2="779.852" y2="256.348" stroke="#D0D0D0"/>
<line x1="-29.8207" y1="713.304" x2="775.301" y2="248.468" stroke="#D0D0D0"/>
<line x1="-34.3699" y1="705.425" x2="770.751" y2="240.588" stroke="#D0D0D0"/>
<line x1="-38.919" y1="697.544" x2="766.202" y2="232.707" stroke="#D0D0D0"/>
<line x1="-43.4682" y1="689.664" x2="761.653" y2="224.828" stroke="#D0D0D0"/>
<line x1="-48.0173" y1="681.784" x2="757.104" y2="216.947" stroke="#D0D0D0"/>
<line x1="-52.5685" y1="673.904" x2="752.553" y2="209.067" stroke="#D0D0D0"/>
<line x1="-57.1177" y1="666.023" x2="748.004" y2="201.187" stroke="#D0D0D0"/>
<line x1="-61.6668" y1="658.144" x2="743.454" y2="193.307" stroke="#D0D0D0"/>
<line x1="-66.216" y1="650.263" x2="738.905" y2="185.426" stroke="#D0D0D0"/>
<line x1="-70.7672" y1="642.383" x2="734.354" y2="177.547" stroke="#D0D0D0"/>
<line x1="-75.3163" y1="634.503" x2="729.805" y2="169.666" stroke="#D0D0D0"/>
<line x1="-79.8655" y1="626.623" x2="725.256" y2="161.786" stroke="#D0D0D0"/>
<line x1="-84.4146" y1="618.743" x2="720.707" y2="153.906" stroke="#D0D0D0"/>
<line x1="-88.9638" y1="610.862" x2="716.157" y2="146.025" stroke="#D0D0D0"/>
<line x1="-93.515" y1="602.982" x2="711.606" y2="138.145" stroke="#D0D0D0"/>
<line x1="-98.0641" y1="595.102" x2="707.057" y2="130.266" stroke="#D0D0D0"/>
<line x1="-102.613" y1="587.222" x2="702.508" y2="122.385" stroke="#D0D0D0"/>
<line x1="-107.162" y1="579.342" x2="697.959" y2="114.505" stroke="#D0D0D0"/>
<line x1="-111.714" y1="571.462" x2="693.408" y2="106.625" stroke="#D0D0D0"/>
<line x1="-116.263" y1="563.582" x2="688.859" y2="98.7451" stroke="#D0D0D0"/>
<line x1="-120.812" y1="555.701" x2="684.309" y2="90.8645" stroke="#D0D0D0"/>
<line x1="-125.361" y1="547.822" x2="679.76" y2="82.9848" stroke="#D0D0D0"/>
<line x1="-129.91" y1="539.942" x2="675.211" y2="75.105" stroke="#D0D0D0"/>
<line x1="-134.461" y1="532.061" x2="670.66" y2="67.2243" stroke="#D0D0D0"/>
<line x1="-139.011" y1="524.181" x2="666.111" y2="59.3437" stroke="#D0D0D0"/>
<line x1="-143.56" y1="516.301" x2="661.562" y2="51.4641" stroke="#D0D0D0"/>
<line x1="-148.109" y1="508.42" x2="657.012" y2="43.5835" stroke="#D0D0D0"/>
<line x1="-152.658" y1="500.541" x2="652.463" y2="35.7038" stroke="#D0D0D0"/>
<line x1="-157.209" y1="492.661" x2="647.912" y2="27.8242" stroke="#D0D0D0"/>
<line x1="-161.758" y1="484.78" x2="643.363" y2="19.9436" stroke="#D0D0D0"/>
<line x1="-166.307" y1="476.9" x2="638.814" y2="12.063" stroke="#D0D0D0"/>
<line x1="-170.857" y1="469.02" x2="634.265" y2="4.18309" stroke="#D0D0D0"/>
<line x1="-175.408" y1="461.14" x2="629.713" y2="-3.69655" stroke="#D0D0D0"/>
<line x1="-179.957" y1="453.26" x2="625.164" y2="-11.5772" stroke="#D0D0D0"/>
<line x1="-184.506" y1="445.379" x2="620.615" y2="-19.4578" stroke="#D0D0D0"/>
<line x1="-189.055" y1="437.499" x2="616.066" y2="-27.3374" stroke="#D0D0D0"/>
<line x1="-275.497" y1="287.777" x2="529.624" y2="-177.06" stroke="#D0D0D0"/>
<line x1="-193.604" y1="429.62" x2="611.517" y2="-35.2171" stroke="#D0D0D0"/>
<line x1="-280.049" y1="279.897" x2="525.073" y2="-184.939" stroke="#D0D0D0"/>
<line x1="-198.156" y1="421.739" x2="606.966" y2="-43.0977" stroke="#D0D0D0"/>
<line x1="-284.598" y1="272.018" x2="520.524" y2="-192.819" stroke="#D0D0D0"/>
<line x1="-202.705" y1="413.858" x2="602.416" y2="-50.9785" stroke="#D0D0D0"/>
<line x1="-289.147" y1="264.137" x2="515.974" y2="-200.7" stroke="#D0D0D0"/>
<line x1="-207.254" y1="405.979" x2="597.867" y2="-58.8579" stroke="#D0D0D0"/>
<line x1="-293.696" y1="256.258" x2="511.425" y2="-208.579" stroke="#D0D0D0"/>
<line x1="-211.803" y1="398.099" x2="593.318" y2="-66.7378" stroke="#D0D0D0"/>
<line x1="-298.245" y1="248.377" x2="506.876" y2="-216.46" stroke="#D0D0D0"/>
<line x1="-216.354" y1="390.218" x2="588.767" y2="-74.6184" stroke="#D0D0D0"/>
<line x1="-302.796" y1="240.497" x2="502.325" y2="-224.339" stroke="#D0D0D0"/>
<line x1="-220.904" y1="382.338" x2="584.218" y2="-82.499" stroke="#D0D0D0"/>
<line x1="-307.346" y1="232.616" x2="497.776" y2="-232.22" stroke="#D0D0D0"/>
<line x1="-225.453" y1="374.458" x2="579.669" y2="-90.3787" stroke="#D0D0D0"/>
<line x1="-311.895" y1="224.737" x2="493.227" y2="-240.1" stroke="#D0D0D0"/>
<line x1="-230.002" y1="366.578" x2="575.12" y2="-98.2583" stroke="#D0D0D0"/>
<line x1="-316.444" y1="216.857" x2="488.677" y2="-247.98" stroke="#D0D0D0"/>
<line x1="-234.551" y1="358.698" x2="570.57" y2="-106.139" stroke="#D0D0D0"/>
<line x1="-320.993" y1="208.977" x2="484.128" y2="-255.86" stroke="#D0D0D0"/>
<line x1="-239.102" y1="350.818" x2="566.019" y2="-114.019" stroke="#D0D0D0"/>
<line x1="-325.544" y1="201.096" x2="479.577" y2="-263.741" stroke="#D0D0D0"/>
<line x1="-243.651" y1="342.937" x2="561.47" y2="-121.899" stroke="#D0D0D0"/>
<line x1="-330.093" y1="193.216" x2="475.028" y2="-271.62" stroke="#D0D0D0"/>
<line x1="-248.2" y1="335.058" x2="556.921" y2="-129.779" stroke="#D0D0D0"/>
<line x1="-334.643" y1="185.336" x2="470.479" y2="-279.501" stroke="#D0D0D0"/>
<line x1="-252.75" y1="327.178" x2="552.372" y2="-137.659" stroke="#D0D0D0"/>
<line x1="-339.192" y1="177.456" x2="465.93" y2="-287.381" stroke="#D0D0D0"/>
<line x1="-257.297" y1="319.297" x2="547.825" y2="-145.539" stroke="#D0D0D0"/>
<line x1="-343.739" y1="169.576" x2="461.382" y2="-295.261" stroke="#D0D0D0"/>
<line x1="-261.85" y1="311.418" x2="543.271" y2="-153.419" stroke="#D0D0D0"/>
<line x1="-348.292" y1="161.696" x2="456.829" y2="-303.141" stroke="#D0D0D0"/>
<line x1="-266.399" y1="303.537" x2="538.722" y2="-161.3" stroke="#D0D0D0"/>
<line x1="-352.841" y1="153.815" x2="452.28" y2="-311.022" stroke="#D0D0D0"/>
<line x1="-270.948" y1="295.657" x2="534.173" y2="-169.18" stroke="#D0D0D0"/>
<line x1="-357.39" y1="145.934" x2="447.731" y2="-318.903" stroke="#D0D0D0"/>
</g>
</svg>
