<svg width="24" height="24" viewBox="0 0 24 24" fill="none" xmlns="http://www.w3.org/2000/svg">
<g clip-path="url(#clip0_255_316)">
<path d="M20.62 8.43243C19.57 3.82202 15.54 1.74634 12 1.74634C12 1.74634 12 1.74634 11.99 1.74634C8.45997 1.74634 4.41997 3.81204 3.36997 8.42245C2.19997 13.5717 5.35997 17.9327 8.21997 20.677C9.27997 21.6949 10.64 22.2038 12 22.2038C13.36 22.2038 14.72 21.6949 15.77 20.677C18.63 17.9327 21.79 13.5817 20.62 8.43243ZM12 13.432C10.26 13.432 8.84997 12.025 8.84997 10.2886C8.84997 8.55219 10.26 7.14511 12 7.14511C13.74 7.14511 15.15 8.55219 15.15 10.2886C15.15 12.025 13.74 13.432 12 13.432Z" fill="#F64949"/>
</g>
<defs>
<clipPath id="clip0_255_316">
<rect width="24" height="23.9502" fill="white"/>
</clipPath>
</defs>
</svg>
