<svg width="34" height="46" viewBox="0 0 34 46" fill="none" xmlns="http://www.w3.org/2000/svg">
<mask id="path-1-inside-1_1_12442" fill="white">
<path fill-rule="evenodd" clip-rule="evenodd" d="M18.4864 45.32C22.7593 41.6155 33.077 31.2364 33.3212 17.1902C33.484 7.80663 26.0094 -0.0142964 16.6364 1.96226e-05C7.44602 0.0143356 0 7.47847 0 16.6836C0 30.9809 10.5069 41.5637 14.8337 45.3156C15.883 46.2252 17.4371 46.2296 18.4864 45.32ZM28.5973 16.5733C28.5973 23.1722 23.2546 28.5217 16.6639 28.5217C10.0732 28.5217 4.73047 23.1722 4.73047 16.5733C4.73047 9.97445 10.0732 4.625 16.6639 4.625C23.2546 4.625 28.5973 9.97445 28.5973 16.5733Z"/>
</mask>
<path fill-rule="evenodd" clip-rule="evenodd" d="M18.4864 45.32C22.7593 41.6155 33.077 31.2364 33.3212 17.1902C33.484 7.80663 26.0094 -0.0142964 16.6364 1.96226e-05C7.44602 0.0143356 0 7.47847 0 16.6836C0 30.9809 10.5069 41.5637 14.8337 45.3156C15.883 46.2252 17.4371 46.2296 18.4864 45.32ZM28.5973 16.5733C28.5973 23.1722 23.2546 28.5217 16.6639 28.5217C10.0732 28.5217 4.73047 23.1722 4.73047 16.5733C4.73047 9.97445 10.0732 4.625 16.6639 4.625C23.2546 4.625 28.5973 9.97445 28.5973 16.5733Z" fill="white"/>
<path d="M33.3212 17.1902L34.3211 17.2076L34.3211 17.2075L33.3212 17.1902ZM18.4864 45.32L19.1414 46.0756L19.1414 46.0756L18.4864 45.32ZM16.6364 1.96226e-05L16.6349 -0.999979L16.6349 -0.999979L16.6364 1.96226e-05ZM14.8337 45.3156L14.1786 46.0711L14.1787 46.0712L14.8337 45.3156ZM32.3214 17.1728C32.0851 30.7618 22.0702 40.8894 17.8313 44.5644L19.1414 46.0756C23.4484 42.3415 34.069 31.7109 34.3211 17.2076L32.3214 17.1728ZM16.6379 1.00002C25.4334 0.986585 32.4748 8.33088 32.3214 17.1729L34.3211 17.2075C34.4932 7.28238 26.5854 -1.01518 16.6349 -0.999979L16.6379 1.00002ZM1 16.6836C1 8.02906 8.00034 1.01347 16.638 1.00002L16.6349 -0.999979C6.8917 -0.984802 -1 6.92787 -1 16.6836H1ZM15.4889 44.5601C11.1949 40.8367 1 30.5124 1 16.6836H-1C-1 31.4494 9.8189 42.2907 14.1786 46.0711L15.4889 44.5601ZM17.8313 44.5644C17.1602 45.1462 16.1644 45.1457 15.4888 44.56L14.1787 46.0712C15.6016 47.3047 17.714 47.313 19.1414 46.0756L17.8313 44.5644ZM16.6639 29.5217C23.808 29.5217 29.5973 23.7233 29.5973 16.5733H27.5973C27.5973 22.6211 22.7011 27.5217 16.6639 27.5217V29.5217ZM3.73047 16.5733C3.73047 23.7233 9.51979 29.5217 16.6639 29.5217V27.5217C10.6267 27.5217 5.73047 22.6211 5.73047 16.5733H3.73047ZM16.6639 3.625C9.51979 3.625 3.73047 9.42334 3.73047 16.5733H5.73047C5.73047 10.5256 10.6267 5.625 16.6639 5.625V3.625ZM29.5973 16.5733C29.5973 9.42334 23.808 3.625 16.6639 3.625V5.625C22.7011 5.625 27.5973 10.5256 27.5973 16.5733H29.5973Z" fill="black" mask="url(#path-1-inside-1_1_12442)"/>
<path opacity="0.13" d="M33.3204 17.1899C33.0763 31.2361 22.7585 41.6152 18.4856 45.3197C17.4374 46.2282 15.8822 46.2249 14.8341 45.3153C12.8147 43.5644 9.45028 40.3268 6.43558 35.9196C9.23581 37.0891 14.1764 38.5659 18.9717 37.1112C26.0383 34.9671 36.8576 18.5246 27.5836 4.14258C31.1768 7.31522 33.4106 12.0153 33.3204 17.1899Z" fill="black"/>
</svg>
