<svg width="52" height="43" viewBox="0 0 52 43" fill="none" xmlns="http://www.w3.org/2000/svg">
<g clip-path="url(#clip0_1_12414)">
<path d="M7.61285 11.8361L51.4576 0.640137L35.1667 34.052L27.0994 23.5696L21.7343 26.878L20.7765 17.2508L7.61285 11.8361Z" fill="white"/>
<path d="M23.8793 22.6169C23.8158 22.6169 23.7621 22.568 23.7572 22.5045L23.2637 15.956C23.2588 15.8876 23.3076 15.829 23.3761 15.8241C23.4445 15.8192 23.5031 15.868 23.508 15.9365L24.0015 22.4849C24.0064 22.5534 23.9575 22.612 23.8891 22.6169C23.8891 22.6169 23.8842 22.6169 23.8793 22.6169Z" fill="black"/>
<path d="M25.9511 20.4079C25.8876 20.4079 25.829 20.3541 25.829 20.2906C25.741 18.4776 25.5895 16.6401 25.3745 14.8368C25.3648 14.7684 25.4136 14.7049 25.482 14.7C25.5456 14.6902 25.614 14.7391 25.6189 14.8075C25.8338 16.6205 25.9853 18.4629 26.0733 20.2808C26.0733 20.3493 26.0244 20.4079 25.956 20.4128C25.956 20.4128 25.956 20.4128 25.9511 20.4128V20.4079Z" fill="black"/>
<path d="M28.0424 18.9369C27.9985 18.9369 27.9545 18.9125 27.9349 18.8734C27.9301 18.8587 27.9203 18.8343 27.9154 18.8196C27.7004 17.1483 27.544 15.4476 27.4463 13.7617C27.4463 13.6932 27.4952 13.6346 27.5636 13.6297C27.6369 13.6248 27.6906 13.6786 27.6955 13.747C27.7932 15.4232 27.9496 17.1141 28.1597 18.7756C28.1793 18.8294 28.1548 18.8929 28.1011 18.9222C28.0815 18.932 28.062 18.9369 28.0424 18.9369Z" fill="black"/>
<path d="M30.0312 17.1288C29.9726 17.1288 29.9188 17.0848 29.909 17.0262C29.6647 15.5308 29.4986 14.0061 29.4155 12.496C29.4155 12.4276 29.4644 12.369 29.5328 12.3641C29.6061 12.3592 29.6598 12.4129 29.6647 12.4814C29.7478 13.9865 29.9139 15.5015 30.1582 16.9871C30.168 17.0555 30.124 17.1191 30.0556 17.1288C30.0507 17.1288 30.041 17.1288 30.0361 17.1288H30.0312Z" fill="black"/>
<path d="M32.0639 15.4327C32.0004 15.4327 31.9466 15.3838 31.9417 15.3203C31.8196 14.0301 31.7365 12.7204 31.6877 11.4254C31.6877 11.357 31.7365 11.2983 31.8049 11.2983C31.8733 11.2983 31.932 11.3521 31.932 11.4156C31.9808 12.7058 32.0639 14.0106 32.1861 15.2958C32.1909 15.3643 32.1421 15.4229 32.0737 15.4327H32.0639Z" fill="black"/>
<path d="M34.4826 14.0403C34.4142 14.0403 34.3605 13.9866 34.3605 13.9181L34.2578 9.76427C34.2578 9.69585 34.3116 9.63721 34.38 9.63721C34.4484 9.63721 34.5022 9.69096 34.5022 9.75938L34.6048 13.9133C34.6048 13.9817 34.551 14.0403 34.4826 14.0403Z" fill="black"/>
<path d="M36.3589 12.4077C36.2905 12.4077 36.2368 12.349 36.2368 12.2806L36.2661 9.11387C36.2661 9.04546 36.3199 8.9917 36.3883 8.9917C36.4567 8.9917 36.5104 9.05034 36.5104 9.11876L36.4811 12.2855C36.4811 12.3539 36.4274 12.4077 36.3589 12.4077Z" fill="black"/>
<path d="M38.4552 11.1226C38.3868 11.1226 38.333 11.0639 38.333 10.9955L38.3623 7.73594C38.3623 7.66753 38.4161 7.61377 38.4845 7.61377C38.5529 7.61377 38.6066 7.67241 38.6066 7.74083L38.5773 11.0004C38.5773 11.0688 38.5236 11.1226 38.4552 11.1226Z" fill="black"/>
<path d="M40.5954 9.50979C40.527 9.50979 40.4732 9.45604 40.4732 9.38762L40.4146 6.69981C40.4146 6.6314 40.4683 6.57275 40.5367 6.57275C40.6051 6.57275 40.6589 6.62651 40.6589 6.69493L40.7175 9.38273C40.7175 9.45115 40.6638 9.50979 40.5954 9.50979Z" fill="black"/>
<path d="M42.545 7.83858C42.4815 7.83858 42.4228 7.78483 42.4228 7.7213C42.3838 6.98337 42.3838 6.23567 42.418 5.49775C42.418 5.42933 42.4815 5.37069 42.5499 5.38046C42.6183 5.38046 42.672 5.44399 42.6672 5.51241C42.633 6.24056 42.633 6.98337 42.672 7.71152C42.672 7.77994 42.6232 7.83858 42.5548 7.84347C42.5548 7.84347 42.5548 7.84347 42.5499 7.84347L42.545 7.83858Z" fill="black"/>
<path d="M44.5728 6.22091C44.5044 6.22091 44.4507 6.16715 44.4507 6.09873L44.392 4.36388C44.392 4.29546 44.4458 4.23682 44.5093 4.23682C44.5679 4.23682 44.6363 4.28569 44.6363 4.3541L44.695 6.08896C44.695 6.15738 44.6412 6.21602 44.5777 6.21602L44.5728 6.22091Z" fill="black"/>
<path d="M22.4134 24.9574C22.3499 24.9574 22.2913 24.9037 22.2913 24.8401C22.1691 22.2158 21.959 19.5622 21.6609 16.9526C21.6512 16.8842 21.7 16.8207 21.7684 16.8158C21.832 16.8109 21.8955 16.8549 21.9053 16.9233C22.2033 19.5378 22.4183 22.2012 22.5356 24.8255C22.5356 24.8939 22.4867 24.9525 22.4183 24.9574C22.4183 24.9574 22.4183 24.9574 22.4134 24.9574Z" fill="black"/>
<path d="M35.1178 34.7216C35.0006 34.7216 34.8882 34.6678 34.8198 34.5701L25.0081 21.4438C24.8859 21.2825 24.9152 21.0528 25.0765 20.9307C25.228 20.8085 38.6506 10.1941 47.744 2.95169C38.9389 7.81906 30.0116 12.6473 21.1528 17.329C21.0795 17.3681 21.0013 17.3828 20.9231 17.3681C16.6965 16.7035 7.4858 12.2222 7.0949 12.0316C6.95319 11.9632 6.87013 11.8166 6.88967 11.6602C6.90433 11.5038 7.01672 11.3767 7.16819 11.3376L51.5358 0.00976491C51.6775 -0.0244435 51.8241 0.0244257 51.9169 0.136825C52.0098 0.249224 52.0244 0.405605 51.9658 0.532665L35.4599 34.5114C35.4012 34.6287 35.2888 34.7069 35.1618 34.7216C35.152 34.7216 35.1374 34.7216 35.1276 34.7216H35.1178ZM25.8241 21.2923L35.0543 33.6367L50.6025 1.63222C42.3544 8.21979 28.018 19.5574 25.8241 21.2923ZM8.34579 11.8068C10.7987 12.965 17.5223 16.034 20.9134 16.6155C30.2608 11.6748 39.6767 6.57778 48.9412 1.44163L8.34579 11.8068Z" fill="black"/>
<path d="M21.3238 27.3714C21.2896 27.3714 21.2603 27.3714 21.2261 27.3568C21.0746 27.3177 20.9622 27.1808 20.9525 27.0196L20.3221 17.4607C20.3075 17.2555 20.4638 17.0796 20.669 17.0649C20.8645 17.0551 21.0502 17.2066 21.0648 17.4119L21.6268 25.8858L24.8908 21.038C25.0081 20.8669 25.2377 20.8229 25.4088 20.9353C25.5798 21.0526 25.6238 21.2823 25.5114 21.4534L21.6365 27.2004C21.5681 27.303 21.4509 27.3665 21.3287 27.3665L21.3238 27.3714Z" fill="black"/>
<path d="M21.6219 27.3717C21.4997 27.3717 21.3776 27.3081 21.3092 27.1957C21.2017 27.0198 21.2505 26.7901 21.4264 26.6826L26.8649 23.252C27.0359 23.1445 27.2704 23.1934 27.3779 23.3693C27.4854 23.5452 27.4366 23.7749 27.2607 23.8824L21.8222 27.313C21.7587 27.3521 21.6903 27.3717 21.6219 27.3717Z" fill="black"/>
<path d="M0.371361 43.0001C0.244318 43.0001 0.12216 42.9366 0.0537518 42.8193C-0.0537467 42.6434 0.00488885 42.4137 0.175909 42.3062C5.80004 38.8854 11.2385 34.9709 16.3349 30.6656C16.4913 30.5336 16.7258 30.5532 16.8577 30.7095C16.9897 30.8659 16.9701 31.1005 16.8138 31.2324C11.688 35.5623 6.22026 39.4962 0.561927 42.9366C0.503291 42.9757 0.434883 42.9904 0.366475 42.9904L0.371361 43.0001Z" fill="black"/>
<path d="M15.5482 39.9508C15.4749 39.9508 15.4016 39.9313 15.3332 39.8824C15.1671 39.7651 15.1231 39.5305 15.2404 39.3644C17.5076 36.1292 20.1413 33.2166 23.0731 30.7047C23.2295 30.5728 23.464 30.5875 23.5959 30.7438C23.7279 30.9002 23.7132 31.1348 23.5568 31.2667C20.6739 33.7346 18.0793 36.6033 15.8511 39.7895C15.7779 39.8922 15.6655 39.9459 15.5482 39.9459V39.9508Z" fill="black"/>
</g>
<defs>
<clipPath id="clip0_1_12414">
<rect width="52" height="43" fill="white"/>
</clipPath>
</defs>
</svg>
