<svg width="78" height="81" viewBox="0 0 78 81" fill="none" xmlns="http://www.w3.org/2000/svg">
<g clip-path="url(#clip0_1_11140)">
<path d="M37.0888 81.0004C57.5724 81.0004 74.1776 64.2076 74.1776 43.4926C74.1776 22.7777 57.5724 5.98486 37.0888 5.98486C16.6052 5.98486 0 22.7777 0 43.4926C0 64.2076 16.6052 81.0004 37.0888 81.0004Z" fill="#F9A11F"/>
<path d="M39.7917 76.1484C60.2752 76.1484 76.8804 59.3556 76.8804 38.6406C76.8804 17.9256 60.2752 1.13281 39.7917 1.13281C19.3081 1.13281 2.70288 17.9256 2.70288 38.6406C2.70288 59.3556 19.3081 76.1484 39.7917 76.1484Z" stroke="#BC760F" stroke-width="1.4" stroke-miterlimit="10"/>
<path d="M37.9975 19.2935H22.0916C19.4434 19.2935 17.2966 21.4402 17.2966 24.0884V58.8467C17.2966 61.4949 19.4434 63.6417 22.0916 63.6417H37.9975C40.6456 63.6417 42.7924 61.4949 42.7924 58.8467V24.0884C42.7924 21.4402 40.6456 19.2935 37.9975 19.2935Z" fill="white"/>
<path d="M37.9501 63.9382H22.1431C19.3091 63.9382 17.0037 61.6328 17.0037 58.7988V24.1394C17.0037 21.3054 19.3091 19 22.1431 19H37.9501C40.7841 19 43.0895 21.3054 43.0895 24.1394V58.7988C43.0895 61.6328 40.7841 63.9382 37.9501 63.9382ZM22.1431 19.59C19.6365 19.59 17.5971 21.6294 17.5971 24.136V58.7954C17.5971 61.302 19.6365 63.3414 22.1431 63.3414H37.9501C40.4567 63.3414 42.4961 61.302 42.4961 58.7954V24.136C42.4961 21.6294 40.4567 19.59 37.9501 19.59H22.1431Z" fill="black"/>
<path d="M42.7929 24.0098H17.2971V57.4517H42.7929V24.0098Z" fill="#30B47A"/>
<path d="M42.7925 57.7487H17.2967C17.133 57.7487 17 57.6157 17 57.452V24.0101C17 23.8464 17.133 23.7134 17.2967 23.7134H42.7925C42.9562 23.7134 43.0892 23.8464 43.0892 24.0101V57.452C43.0892 57.6157 42.9562 57.7487 42.7925 57.7487ZM17.5934 57.1553H42.4958V24.3068H17.5934V57.1553Z" fill="black"/>
<path d="M32.5989 60.1525H28.0051C27.8414 60.1525 27.7084 60.0195 27.7084 59.8558C27.7084 59.6921 27.8414 59.5591 28.0051 59.5591H32.5989C32.7626 59.5591 32.8956 59.6921 32.8956 59.8558C32.8956 60.0195 32.7626 60.1525 32.5989 60.1525Z" fill="black"/>
<path d="M30.1774 31.2946H21.4435C21.2798 31.2946 21.1468 31.1616 21.1468 30.9979C21.1468 30.8342 21.2798 30.7012 21.4435 30.7012H30.1774C30.3411 30.7012 30.4741 30.8342 30.4741 30.9979C30.4741 31.1616 30.3411 31.2946 30.1774 31.2946Z" fill="black"/>
<path d="M25.7883 38.234H21.4435C21.2798 38.234 21.1468 38.101 21.1468 37.9373C21.1468 37.7736 21.2798 37.6406 21.4435 37.6406H25.7883C25.952 37.6406 26.085 37.7736 26.085 37.9373C26.085 38.101 25.952 38.234 25.7883 38.234Z" fill="black"/>
<path d="M38.9118 45.3688H31.5147C31.351 45.3688 31.218 45.2358 31.218 45.0721C31.218 44.9084 31.351 44.7754 31.5147 44.7754H38.9118C39.0755 44.7754 39.2085 44.9084 39.2085 45.0721C39.2085 45.2358 39.0755 45.3688 38.9118 45.3688Z" fill="black"/>
<path d="M38.9114 51.7121H28.2302C28.0665 51.7121 27.9335 51.579 27.9335 51.4154C27.9335 51.2517 28.0665 51.1187 28.2302 51.1187H38.9114C39.0751 51.1187 39.2081 51.2517 39.2081 51.4154C39.2081 51.579 39.0751 51.7121 38.9114 51.7121Z" fill="black"/>
<path d="M23.9907 48.8436C23.9259 48.8436 23.8645 48.8231 23.81 48.7822C23.6804 48.6833 23.6565 48.4957 23.7554 48.3662L36.3328 31.9965C36.3805 31.9317 36.4521 31.8907 36.534 31.8839C36.6158 31.8737 36.6943 31.8976 36.7557 31.9487L48.0235 41.0373L54.6771 31.3553C54.7691 31.2189 54.9533 31.1848 55.0897 31.2803C55.2261 31.3724 55.2602 31.5565 55.1647 31.693L48.3304 41.6409C48.2826 41.7091 48.211 41.7535 48.1292 41.7671C48.0473 41.7808 47.9655 41.7569 47.9007 41.7057L36.6192 32.6069L24.226 48.7345C24.1681 48.8095 24.0794 48.8504 23.9907 48.8504V48.8436Z" fill="black"/>
<path d="M54.9222 33.2997C55.9053 33.2997 56.7023 32.5026 56.7023 31.5195C56.7023 30.5363 55.9053 29.7393 54.9222 29.7393C53.939 29.7393 53.1419 30.5363 53.1419 31.5195C53.1419 32.5026 53.939 33.2997 54.9222 33.2997Z" fill="white"/>
<path d="M54.9224 33.5962C53.7766 33.5962 52.8455 32.6652 52.8455 31.5193C52.8455 30.3734 53.7766 29.4424 54.9224 29.4424C56.0683 29.4424 56.9993 30.3734 56.9993 31.5193C56.9993 32.6652 56.0683 33.5962 54.9224 33.5962ZM54.9224 30.0358C54.1039 30.0358 53.4389 30.7008 53.4389 31.5193C53.4389 32.3378 54.1039 33.0028 54.9224 33.0028C55.7409 33.0028 56.4059 32.3378 56.4059 31.5193C56.4059 30.7008 55.7409 30.0358 54.9224 30.0358Z" fill="black"/>
<path d="M36.3919 33.9579C37.375 33.9579 38.1721 33.1608 38.1721 32.1777C38.1721 31.1945 37.375 30.3975 36.3919 30.3975C35.4087 30.3975 34.6117 31.1945 34.6117 32.1777C34.6117 33.1608 35.4087 33.9579 36.3919 33.9579Z" fill="#F9A11F"/>
<path d="M36.3913 34.2544C35.2454 34.2544 34.3144 33.3234 34.3144 32.1775C34.3144 31.0316 35.2454 30.1006 36.3913 30.1006C37.5371 30.1006 38.4682 31.0316 38.4682 32.1775C38.4682 33.3234 37.5371 34.2544 36.3913 34.2544ZM36.3913 30.694C35.5728 30.694 34.9078 31.359 34.9078 32.1775C34.9078 32.996 35.5728 33.661 36.3913 33.661C37.2097 33.661 37.8747 32.996 37.8747 32.1775C37.8747 31.359 37.2097 30.694 36.3913 30.694Z" fill="black"/>
<path d="M48.0884 43.2479C49.0716 43.2479 49.8686 42.4509 49.8686 41.4677C49.8686 40.4845 49.0716 39.6875 48.0884 39.6875C47.1052 39.6875 46.3082 40.4845 46.3082 41.4677C46.3082 42.4509 47.1052 43.2479 48.0884 43.2479Z" fill="white"/>
<path d="M48.0889 43.5444C46.943 43.5444 46.012 42.6134 46.012 41.4675C46.012 40.3216 46.943 39.3906 48.0889 39.3906C49.2347 39.3906 50.1658 40.3216 50.1658 41.4675C50.1658 42.6134 49.2347 43.5444 48.0889 43.5444ZM48.0889 39.984C47.2704 39.984 46.6054 40.649 46.6054 41.4675C46.6054 42.286 47.2704 42.951 48.0889 42.951C48.9073 42.951 49.5724 42.286 49.5724 41.4675C49.5724 40.649 48.9073 39.984 48.0889 39.984Z" fill="black"/>
<path d="M24.008 50.3275C24.9912 50.3275 25.7882 49.5305 25.7882 48.5473C25.7882 47.5641 24.9912 46.7671 24.008 46.7671C23.0248 46.7671 22.2278 47.5641 22.2278 48.5473C22.2278 49.5305 23.0248 50.3275 24.008 50.3275Z" fill="white"/>
<path d="M24.0076 50.624C22.8617 50.624 21.9307 49.693 21.9307 48.5471C21.9307 47.4012 22.8617 46.4702 24.0076 46.4702C25.1535 46.4702 26.0845 47.4012 26.0845 48.5471C26.0845 49.693 25.1535 50.624 24.0076 50.624ZM24.0076 47.0636C23.1891 47.0636 22.5241 47.7286 22.5241 48.5471C22.5241 49.3656 23.1891 50.0306 24.0076 50.0306C24.8261 50.0306 25.4911 49.3656 25.4911 48.5471C25.4911 47.7286 24.8261 47.0636 24.0076 47.0636Z" fill="black"/>
<g opacity="0.13">
<path d="M41.5518 24.0372C41.2892 24.0952 40.6003 24.0611 39.4647 24.0133C37.0433 23.969 34.6186 23.911 32.1972 23.9144C29.827 23.8394 27.4636 24.0406 25.0969 23.9895C23.6133 23.9895 22.1298 24.0508 20.6429 24.0543C19.688 24.102 18.74 24.1941 17.7816 24.177C16.9427 24.1941 16.9291 25.4389 17.7816 25.4627C18.7434 25.5002 19.7051 25.4252 20.6668 25.3979C21.7138 25.4116 22.7574 25.4013 23.8043 25.3741C25.4686 25.3604 27.1362 25.4695 28.8005 25.3945C31.7504 25.3161 34.7038 25.34 37.6538 25.3911C38.8406 25.432 40.0274 25.4627 41.2108 25.5378C41.2142 25.5378 41.221 25.5378 41.2244 25.5378C41.2517 25.5412 41.279 25.5446 41.3165 25.5514C41.4393 25.5821 41.5688 25.5787 41.695 25.5616C42.0497 25.5957 42.4146 25.357 42.5033 25.0057C42.6567 24.4192 42.1247 23.9417 41.5518 24.0406V24.0372Z" fill="black"/>
</g>
<g opacity="0.13">
<path d="M25.891 49.5018C25.6966 49.3313 25.3726 49.362 25.1953 49.5427C25.1339 49.6143 25.0623 49.6791 24.9907 49.7405C24.9463 49.7712 24.8747 49.8189 24.827 49.8462C24.769 49.8906 24.6326 49.9554 24.5678 49.9895C24.4962 50.0167 24.4245 50.0406 24.3529 50.0611C24.2847 50.085 24.1585 50.1122 24.0903 50.1259C24.0085 50.1327 23.9301 50.1361 23.8482 50.1361C23.8209 50.1361 23.8004 50.1361 23.7868 50.1327C23.6231 50.0952 23.3435 49.9997 23.2309 49.9622C23.2139 49.952 23.1934 49.9451 23.1764 49.9349C23.1559 49.9213 23.1422 49.911 23.1286 49.9042C23.1081 49.8872 23.0877 49.8667 23.0672 49.8462C23.0161 49.7405 22.9342 49.6484 22.8319 49.5904C22.4022 49.3176 21.8156 49.7678 21.9691 50.2555C22.1089 50.6852 22.5182 50.9614 22.9035 51.1558C23.7698 51.5992 24.8645 51.415 25.5772 50.7704C25.9183 50.4806 26.3719 49.8769 25.8944 49.512L25.891 49.5018Z" fill="black"/>
</g>
<g opacity="0.13">
<path d="M38.4988 33.1016C38.284 32.7844 37.7622 32.8288 37.5814 33.1562C37.561 33.1937 37.5371 33.2244 37.5166 33.2619C37.4996 33.2789 37.4757 33.2994 37.4484 33.3267C37.2711 33.5313 36.8618 33.7564 36.5106 33.7598C35.9752 33.7598 36.1627 33.7973 35.7126 33.6472C35.2453 33.3608 35.4125 33.4972 35.051 33.1357C34.478 32.5798 33.6391 33.4222 34.1915 33.9951C34.5803 34.4077 35.068 34.742 35.6205 34.892C36.3742 35.0591 37.2438 34.9909 37.8815 34.5237C38.2465 34.2611 38.8842 33.5449 38.5056 33.1016H38.4988Z" fill="black"/>
</g>
</g>
<defs>
<clipPath id="clip0_1_11140">
<rect width="78" height="81" fill="white" transform="translate(0 0.000488281)"/>
</clipPath>
</defs>
</svg>
