<svg width="33" height="36" viewBox="0 0 33 36" fill="none" xmlns="http://www.w3.org/2000/svg">
<path d="M0.990609 29.0326L0.990538 29.0327C0.269191 29.8551 0.352992 31.1046 1.17885 31.8246L1.17897 31.8247L4.18157 34.4439C5.57285 35.4966 6.81141 35.4164 6.92905 35.4061C7.12824 35.3717 7.35369 35.3653 7.56881 35.3657C7.69514 35.366 7.8401 35.369 7.98469 35.3721C8.08769 35.3743 8.1905 35.3765 8.28627 35.3776C8.78803 35.3837 9.25469 35.365 9.62583 35.2478C13.0998 34.15 18.1234 31.9326 23.8711 25.3769C29.6207 18.8193 31.489 13.1687 32.391 9.25959C32.391 9.25957 32.391 9.25955 32.391 9.25953L32.8782 9.37195C33.0571 8.59661 32.9995 7.74608 32.9513 7.03449C32.9227 6.61218 32.8975 6.23881 32.9269 5.95912L0.990609 29.0326ZM0.990609 29.0326L5.35466 24.055C5.35469 24.0549 5.35472 24.0549 5.35475 24.0549C5.35478 24.0548 5.35481 24.0548 5.35484 24.0548C6.06825 23.2422 7.29946 23.1496 8.12598 23.8394L8.15909 23.8683L12.1379 27.3378L12.4347 27.5966L12.7559 27.3688C15.0153 25.7658 17.012 24.1528 19.3738 21.4577C22.0812 18.3696 23.6579 15.6983 25.1108 12.8286L25.2865 12.4815L24.9932 12.2258L21.2331 8.94792C20.4072 8.22743 20.3238 6.97778 21.0453 6.15525L21.0454 6.15517L25.4095 1.17744C25.4095 1.17741 25.4096 1.17738 25.4096 1.17736C26.1321 0.353732 27.3881 0.269317 28.2138 0.989531L28.2227 0.997317L28.232 1.00467L29.0867 1.68173L31.1395 3.51162C31.2072 3.59008 31.2877 3.67049 31.3853 3.75537C32.4167 4.65483 32.428 5.82985 32.4276 5.92745L0.990609 29.0326Z" fill="white" stroke="black"/>
<path opacity="0.13" d="M3.39261 34.4191L3.86517 34.8312C5.50144 36.0767 6.97282 35.9041 6.99809 35.901C7.62164 35.7857 8.86622 36.0112 9.77596 35.7239C13.3246 34.6025 18.4305 32.3394 24.2465 25.7059C30.0626 19.0724 31.9616 13.3411 32.8777 9.3713C33.1626 8.13582 32.8474 6.70945 32.9263 5.95846C32.9263 5.94775 32.9365 5.6655 32.843 5.25977C31.1637 21.7009 16.1865 30.8702 3.39261 34.4191Z" fill="black"/>
</svg>
