<svg width="73" height="74" viewBox="0 0 73 74" fill="none" xmlns="http://www.w3.org/2000/svg">
<g clip-path="url(#clip0_1_11247)">
<path d="M34.4867 74.0134C53.5331 74.0134 68.9733 58.5651 68.9733 39.5086C68.9733 20.4522 53.5331 5.00391 34.4867 5.00391C15.4402 5.00391 0 20.4522 0 39.5086C0 58.5651 15.4402 74.0134 34.4867 74.0134Z" fill="#F64949"/>
<path d="M37.3703 70.1535C56.4167 70.1535 71.8569 54.7052 71.8569 35.6488C71.8569 16.5923 56.4167 1.14404 37.3703 1.14404C18.3238 1.14404 2.88363 16.5923 2.88363 35.6488C2.88363 54.7052 18.3238 70.1535 37.3703 70.1535Z" stroke="#BC3C22" stroke-width="1.76" stroke-miterlimit="10"/>
<path d="M34.7078 57.4109C34.3715 57.4109 34.0319 57.3868 33.6956 57.3352C32.8791 57.2044 32.0625 56.8466 31.5239 56.6093C31.3249 56.5233 31.0847 56.4166 30.9818 56.3891C30.8617 56.4201 30.7347 56.3753 30.6627 56.2721C30.5803 56.1552 30.5941 55.9935 30.6936 55.8902C30.745 55.8386 30.7999 55.8042 30.8617 55.7905C32.3987 55.1059 33.85 54.927 35.0989 55.2675C34.9719 50.4993 35.4145 45.7241 36.4095 41.059C36.6737 39.824 36.9035 38.9226 37.6892 37.7219C37.7167 37.6806 37.7441 37.6428 37.7716 37.6015C37.2329 37.0304 36.7217 36.4077 36.2345 35.816C35.7199 35.1864 35.2327 34.5947 34.7695 34.1268C34.622 33.9789 34.4847 33.8344 34.3544 33.6933C34.2823 33.7415 34.2068 33.7896 34.1279 33.8344C33.3731 34.2816 32.6664 34.6394 31.6474 34.55C31.1121 34.5018 30.5426 34.7254 30.0451 35.1795C29.208 35.9467 28.7071 37.2472 28.7071 38.6508C28.7071 40.0545 29.2766 41.2827 30.2716 42.0464C31.0435 42.6416 31.9596 42.8549 32.7796 42.6347C32.8894 42.6037 33.0026 42.6416 33.0781 42.7242C33.1467 42.8033 33.1707 42.9099 33.1433 43.0097C33.0746 43.4019 33.0918 47.6713 33.1192 50.2825C33.1192 50.4408 33.0026 50.5715 32.8448 50.5853C30.9337 50.7401 28.834 50.7229 27.5989 49.4741C27.1906 49.8078 26.151 50.802 25.2281 51.7206C25.1663 51.7791 25.0874 51.8135 25.0017 51.8066C24.9159 51.8031 24.837 51.7619 24.7855 51.6931L21.2242 47.2069C21.1762 47.145 21.1522 47.0624 21.1625 46.9833C21.1727 46.9041 21.2139 46.8319 21.2757 46.7837L23.7871 44.8365C22.9911 43.6771 22.4799 42.3423 22.3015 40.9455C21.78 40.9214 20.2704 40.9765 18.9083 41.0522C18.826 41.0556 18.7437 41.0281 18.6853 40.9696C18.627 40.9111 18.5927 40.832 18.5927 40.7494L18.6785 35.0454C18.6785 34.8802 18.8123 34.7495 18.977 34.7495H22.0854C22.3976 33.3149 22.9088 32.3103 23.5881 31.12C23.1867 30.7759 21.9653 29.8539 20.8434 29.0282C20.7199 28.9354 20.6856 28.7633 20.7645 28.6326C21.8315 26.8643 23.1695 25.2921 24.7478 23.9607C24.8095 23.9056 24.8919 23.8747 24.9776 23.8747C25.1012 23.8747 25.4614 23.8712 27.8974 26.2622C28.9129 25.2577 31.3111 24.5799 32.4502 24.4664C32.4811 23.4412 32.4914 22.4469 32.5017 21.4802C32.5017 21.3391 32.6046 21.2187 32.7418 21.1912C33.9221 20.9573 35.0886 20.8575 36.4129 20.8781C40.3207 21.0777 47.1963 22.5054 49.4676 29.8436C51.533 36.5144 47.7281 41.668 45.2132 45.0739C44.7364 45.7207 44.2869 46.3296 43.9472 46.8594C43.6865 47.2619 43.4154 47.6679 43.1478 48.0601C41.9264 49.8697 40.6604 51.7378 40.4683 53.8777C40.4614 53.9671 40.4546 54.0566 40.4477 54.1494C40.4031 54.7205 40.3585 55.3088 40.0188 55.8146C39.5454 56.5164 38.6979 56.7572 37.8745 56.943C36.8898 57.1632 35.8022 57.4074 34.7078 57.4074V57.4109ZM31.7812 56.0691C32.3233 56.3065 33.0575 56.6265 33.7917 56.7434C35.1057 56.9567 36.509 56.6402 37.7476 56.3616C38.4852 56.1964 39.1782 56.0038 39.5282 55.4843C39.7787 55.1127 39.8164 54.6242 39.8541 54.1082C39.861 54.0153 39.8679 53.9224 39.8782 53.8295C40.084 51.5348 41.3946 49.6013 42.6572 47.7298C42.9214 47.3411 43.1924 46.9385 43.4498 46.5429C43.7997 45.9993 44.256 45.3801 44.7398 44.7264C47.186 41.4168 50.8811 36.4112 48.9049 30.0294C46.74 23.0387 40.1423 21.6729 36.3992 21.4836C35.2155 21.4664 34.1588 21.5456 33.0986 21.7382C33.0884 22.7153 33.0746 23.7233 33.0403 24.7657C33.0369 24.9274 32.9031 25.0547 32.7418 25.0547C31.6679 25.0547 28.8683 25.8976 28.1581 26.878C28.1066 26.9503 28.0277 26.9916 27.942 27.0019C27.8528 27.0088 27.7704 26.9778 27.7087 26.9159C26.6828 25.901 25.4374 24.7657 25.0291 24.518C23.619 25.729 22.4044 27.1395 21.4232 28.7152C24.2812 30.8138 24.2743 30.9032 24.2606 31.0993C24.2606 31.1475 24.2434 31.1956 24.216 31.2369C23.4509 32.5683 22.9294 33.5557 22.624 35.1107C22.5966 35.2518 22.4731 35.3516 22.3324 35.3516H19.2754L19.2 40.4398C22.5691 40.2574 22.6858 40.3744 22.7887 40.4776C22.8367 40.5258 22.8676 40.5912 22.8745 40.66C23.0254 42.129 23.5675 43.5326 24.4424 44.723C24.5385 44.8537 24.5145 45.0395 24.3841 45.1358L21.8864 47.0727L25.0531 51.06C27.4376 48.6931 27.5611 48.7344 27.7567 48.8032C27.815 48.8238 27.8631 48.8617 27.9008 48.9098C28.882 50.0658 30.7588 50.1346 32.5257 50.0107C32.5017 47.403 32.4879 44.4443 32.5394 43.2918C31.6542 43.4053 30.7176 43.1336 29.9182 42.5212C28.7757 41.6439 28.1204 40.2299 28.1204 38.6508C28.1204 37.0717 28.6933 35.6165 29.654 34.7357C30.275 34.1681 31.0058 33.8894 31.7126 33.9513C32.4879 34.0201 33.0129 33.8034 33.8363 33.3149C33.8809 33.2874 33.9289 33.2598 33.9735 33.2289C32.2409 31.089 32.4776 29.5581 32.8173 28.7909C33.2222 27.8757 34.0284 27.4251 34.6185 27.456C35.1023 27.4801 35.5312 27.7037 35.864 28.1097C36.3306 28.6808 36.5742 29.6131 36.4575 30.3837C36.286 31.5225 35.6993 32.5718 34.8416 33.3218C34.9548 33.4456 35.0749 33.5695 35.2018 33.6968C35.689 34.1853 36.1831 34.7873 36.708 35.4272C37.1712 35.9915 37.6583 36.5866 38.1661 37.1268C38.8901 36.3699 39.8747 35.9742 41.0996 35.9536C41.772 35.9364 42.8459 36.3217 43.3983 36.9547C43.6728 37.2678 43.7894 37.6153 43.7379 37.9559C43.6693 38.41 43.3743 38.8366 42.9145 39.1565C42.3073 39.5797 41.4976 39.7655 40.856 39.6313C39.9022 39.4318 39.0273 38.8091 38.2176 38.0247C38.2176 38.0281 38.2107 38.035 38.2073 38.0384C37.5348 39.0705 37.3015 39.8068 37.0099 41.176C35.9943 45.9305 35.5621 50.8055 35.7233 55.6666C35.7233 55.7664 35.6787 55.8627 35.5998 55.9212C35.5175 55.9797 35.4145 55.9935 35.3185 55.9556C34.3063 55.5669 33.0986 55.6047 31.7949 56.0623L31.7812 56.0691ZM33.1433 43.02C33.1433 43.02 33.1398 43.0303 33.1364 43.0372C33.1364 43.0338 33.1398 43.0269 33.1433 43.02ZM38.571 37.5637C39.3258 38.2999 40.1252 38.8813 40.9589 39.0568C41.4392 39.1565 42.0842 39.0052 42.5543 38.6749C42.8802 38.4478 43.0861 38.1623 43.1307 37.8733C43.1547 37.7116 43.0895 37.5362 42.9317 37.3573C42.52 36.8825 41.6519 36.5591 41.1167 36.5591C41.1099 36.5591 41.103 36.5591 41.0927 36.5591C40.0154 36.5763 39.1851 36.9066 38.5675 37.5602L38.571 37.5637ZM34.5499 28.0615C34.1691 28.0615 33.627 28.4193 33.3525 29.042C33.1227 29.5615 32.831 30.8929 34.4401 32.878C35.1915 32.2209 35.7062 31.3023 35.8571 30.3046C35.936 29.7851 35.7988 29.0007 35.3905 28.4984C35.1675 28.2232 34.893 28.0787 34.5774 28.0615C34.5671 28.0615 34.5602 28.0615 34.5499 28.0615Z" fill="white"/>
<path d="M41.854 53.7639C41.854 53.7639 29.7462 53.6057 29.7359 53.7192C29.5644 56.2135 29.7188 58.7318 30.1888 61.1813C30.429 62.4301 30.9745 65.3716 35.4176 65.633C38.9034 65.8395 40.5331 63.8922 41.0203 61.8556C41.5761 59.5402 41.8711 56.5506 41.8574 53.7639H41.854Z" fill="#34CE72"/>
<path d="M35.9352 65.9494C35.7636 65.9494 35.5852 65.9425 35.4 65.9322C30.7476 65.6569 30.1541 62.571 29.9002 61.2533C29.4199 58.7557 29.2655 56.2201 29.4404 53.6949C29.4713 53.3991 29.6532 53.3956 30.257 53.3853C30.5898 53.3784 31.0667 53.375 31.6362 53.375C32.6449 53.375 34.0448 53.3819 35.8048 53.3956C38.8 53.4197 41.8295 53.461 41.8604 53.461C42.0217 53.461 42.1555 53.5952 42.1555 53.7569C42.1726 56.6399 41.8638 59.6157 41.3115 61.9207C41.0164 63.1593 39.9048 65.9425 35.9352 65.9425V65.9494ZM30.0168 53.9943C29.8762 56.375 30.0306 58.7763 30.4835 61.126C30.7339 62.423 31.2451 65.0893 35.4343 65.337C39.3833 65.5744 40.4537 62.9322 40.7282 61.7866C41.2531 59.602 41.5516 56.8016 41.555 54.0596C37.311 54.0046 31.2623 53.9495 30.0168 53.9943Z" fill="white"/>
<g opacity="0.13">
<path d="M41.6682 53.8809C41.4006 53.1791 40.3233 53.4027 40.3302 54.1493C40.1518 56.1171 40.1346 57.5414 39.9768 58.9038C39.8499 59.6779 39.5411 60.3969 39.2735 61.1262C39.0367 61.7145 37.8702 63.2042 36.7174 63.7134C36.2886 63.9473 34.8681 64.281 34.1271 63.9542C33.6879 63.8303 33.3242 63.6102 32.1852 62.9909C31.2863 62.4921 30.5212 63.7959 31.3961 64.3429C31.8832 64.6457 32.3636 64.9588 32.8336 65.289C32.7753 65.2512 32.7067 65.1858 32.6621 65.1583C33.0772 65.4989 33.5781 65.7328 34.0962 65.8739C36.9919 66.4691 39.2735 64.8934 40.6184 62.4026C41.1227 61.3739 41.3766 59.9944 41.4521 59.468C41.5928 58.5598 41.5722 58.6148 41.6134 57.6068C41.6134 57.452 41.6614 57.249 41.6065 57.0598C41.6271 56.6435 41.6408 56.2341 41.6648 55.8316C41.682 55.3465 41.6957 54.8614 41.7197 54.3763C41.7266 54.2078 41.7574 54.0289 41.6717 53.8775L41.6682 53.8809Z" fill="white"/>
</g>
<path d="M34.2033 18.7625C34.0387 18.7625 33.9083 18.6317 33.9048 18.4666C33.8877 17.0733 33.946 15.6593 34.0695 14.2729C34.0833 14.1077 34.2308 13.9873 34.392 14.0011C34.5567 14.0148 34.6768 14.1628 34.6631 14.3245C34.5396 15.6937 34.4847 17.0836 34.5018 18.4597C34.5018 18.6249 34.3715 18.759 34.2068 18.7625H34.2033Z" fill="white"/>
<path d="M49.2759 23.9124C49.1936 23.9124 49.1146 23.878 49.0563 23.8161C48.9465 23.6923 48.9534 23.503 49.0769 23.3929C50.1096 22.4503 51.0737 21.4113 51.9314 20.307C52.0344 20.1762 52.2196 20.1522 52.35 20.2554C52.4804 20.3586 52.5044 20.5444 52.4015 20.6751C51.5197 21.807 50.535 22.8666 49.4783 23.8333C49.42 23.8849 49.3479 23.9124 49.2759 23.9124Z" fill="white"/>
<path d="M57.0603 37.2506C57.0603 37.2506 57.05 37.2506 57.0465 37.2506L53.1868 37.0855C53.0221 37.0786 52.8951 36.9375 52.902 36.7724C52.9088 36.6073 53.0495 36.48 53.2142 36.4868L57.074 36.652C57.2387 36.6589 57.3656 36.7999 57.3588 36.965C57.3519 37.1267 57.2181 37.2506 57.0603 37.2506Z" fill="white"/>
<path d="M50.5553 52.0373C50.497 52.0373 50.4421 52.0201 50.3907 51.9857L47.1759 49.8355C47.0386 49.7426 47.0009 49.5568 47.0935 49.4192C47.1862 49.2816 47.3714 49.2437 47.5087 49.3366L50.7235 51.4868C50.8607 51.5797 50.8984 51.7655 50.8058 51.9031C50.7475 51.9891 50.6548 52.0373 50.5588 52.0373H50.5553Z" fill="white"/>
<path d="M19.0833 23.8577C19.0112 23.8577 18.9392 23.8337 18.8809 23.7786C17.8207 22.8119 16.836 21.7488 15.9577 20.6204C15.8548 20.4897 15.8788 20.3039 16.0092 20.2007C16.1395 20.0975 16.3248 20.1216 16.4277 20.2523C17.2889 21.3566 18.2496 22.3922 19.2823 23.3383C19.4058 23.4483 19.4126 23.6376 19.3029 23.7614C19.2445 23.8268 19.1622 23.8577 19.0833 23.8577Z" fill="white"/>
<path d="M11.2988 37.1922C11.1409 37.1922 11.0071 37.0649 11.0003 36.9067C10.9934 36.7416 11.1203 36.6005 11.285 36.5936L15.1448 36.4285C15.3061 36.4216 15.4502 36.5489 15.457 36.714C15.4639 36.8792 15.337 37.0202 15.1723 37.0271L11.3125 37.1922C11.3125 37.1922 11.3022 37.1922 11.2988 37.1922Z" fill="white"/>
<path d="M17.1488 51.9784C17.0527 51.9784 16.9566 51.9303 16.9017 51.8443C16.8091 51.7067 16.8468 51.5209 16.9841 51.428L20.1989 49.2778C20.3361 49.1849 20.5214 49.2227 20.614 49.3604C20.7066 49.498 20.6689 49.6838 20.5317 49.7766L17.3169 51.9268C17.2654 51.9612 17.2071 51.9784 17.1522 51.9784H17.1488Z" fill="white"/>
<path d="M26.0932 49.4877C26.0932 49.4877 26.0795 49.4877 26.0727 49.4877L24.3195 49.0955C24.2646 49.0818 24.2337 49.0302 24.244 48.9751C24.2543 48.9201 24.3092 48.8891 24.3641 48.8994L26.1173 49.2916C26.1722 49.3054 26.203 49.357 26.1927 49.412C26.1825 49.4568 26.1413 49.4912 26.0967 49.4912L26.0932 49.4877Z" fill="white"/>
<path d="M27.1084 47.9125C27.1084 47.9125 27.1016 47.9125 27.0982 47.9125C25.7155 47.7714 24.3397 47.5065 23.0051 47.1246C22.9536 47.1109 22.9227 47.0558 22.9364 47.0008C22.9502 46.9492 23.0051 46.9148 23.06 46.932C24.3843 47.3104 25.7498 47.5719 27.1187 47.7129C27.1736 47.7198 27.2148 47.768 27.2079 47.823C27.2045 47.8746 27.1599 47.9125 27.1084 47.9125Z" fill="white"/>
<path d="M31.8539 47.5304C31.8539 47.5304 31.8402 47.5304 31.8367 47.5304C29.4591 47.0866 27.0643 46.5671 24.7141 45.9925C24.6592 45.9788 24.6283 45.9272 24.6421 45.8721C24.6558 45.8171 24.7107 45.7861 24.7622 45.7999C27.1089 46.3744 29.5003 46.8905 31.8745 47.3343C31.9294 47.3446 31.9637 47.3962 31.9534 47.4512C31.9431 47.4994 31.9019 47.5338 31.8573 47.5338L31.8539 47.5304Z" fill="white"/>
<path d="M31.6031 49.0165C31.6031 49.0165 31.5963 49.0165 31.5929 49.0165C30.6116 48.903 29.6269 48.7344 28.6663 48.5108C28.6114 48.497 28.5805 48.4454 28.5908 48.3904C28.6045 48.3354 28.656 48.3044 28.7109 48.3147C29.6647 48.5349 30.6425 48.7035 31.6169 48.817C31.6718 48.8239 31.7095 48.872 31.7026 48.9271C31.6958 48.9787 31.6546 49.0165 31.6031 49.0165Z" fill="white"/>
<path d="M31.1909 45.9752C31.1909 45.9752 31.1772 45.9752 31.1737 45.9752C29.002 45.5727 26.8267 45.0429 24.7133 44.403C24.6618 44.3858 24.631 44.3307 24.6481 44.2791C24.6653 44.2275 24.7202 44.1966 24.7716 44.2138C26.8816 44.8502 29.0466 45.3766 31.2115 45.7791C31.2664 45.7894 31.3007 45.841 31.2904 45.8961C31.2801 45.9442 31.2389 45.9786 31.1943 45.9786L31.1909 45.9752Z" fill="white"/>
<path d="M30.9683 44.5306C30.9683 44.5306 30.9512 44.5306 30.9443 44.5306L23.8834 42.7692C23.8286 42.7554 23.7977 42.7004 23.8114 42.6488C23.8251 42.5972 23.8766 42.5628 23.9315 42.5765L30.9923 44.338C31.0472 44.3517 31.0781 44.4068 31.0644 44.4584C31.0541 44.5031 31.0129 44.5341 30.9683 44.5341V44.5306Z" fill="white"/>
<path d="M28.8409 42.4253C28.8409 42.4253 28.8306 42.4253 28.8237 42.4253C27.0877 42.1191 25.3516 41.72 23.6568 41.2418C23.6053 41.2281 23.5744 41.173 23.5881 41.118C23.6019 41.0664 23.6568 41.0354 23.7117 41.0492C25.3997 41.5274 27.1323 41.9264 28.858 42.2292C28.9129 42.2395 28.9473 42.2911 28.937 42.3462C28.9301 42.3943 28.8855 42.4287 28.8409 42.4287V42.4253Z" fill="white"/>
<path d="M27.417 40.6603C27.417 40.6603 27.4033 40.6603 27.3964 40.6603C24.8438 40.0789 22.2741 39.4114 19.7592 38.6683C19.7077 38.6546 19.6768 38.5961 19.6906 38.5445C19.7043 38.4929 19.7626 38.4619 19.8141 38.4757C22.3255 39.2153 24.8884 39.8828 27.441 40.4642C27.4959 40.4779 27.5268 40.5296 27.5165 40.5846C27.5062 40.6293 27.465 40.6637 27.4204 40.6637L27.417 40.6603Z" fill="white"/>
<path d="M27.0291 38.8264C27.0291 38.8264 27.012 38.8264 27.0051 38.8264C24.6961 38.2278 22.3699 37.5776 20.0918 36.8964C20.0404 36.8792 20.0095 36.8241 20.0232 36.7725C20.0404 36.7209 20.0952 36.6899 20.1467 36.7037C22.4248 37.3849 24.7476 38.0351 27.0532 38.6337C27.1081 38.6475 27.1389 38.7025 27.1252 38.7541C27.1149 38.7989 27.0738 38.8298 27.0291 38.8298V38.8264Z" fill="white"/>
<path d="M26.9128 37.2816C26.9128 37.2816 26.9025 37.2816 26.8957 37.2816C25.6365 37.0649 24.3945 36.7209 23.204 36.2633C23.1525 36.2427 23.1285 36.1842 23.1457 36.136C23.1662 36.0844 23.2211 36.0603 23.2726 36.0775C24.4494 36.5317 25.6811 36.8722 26.9265 37.0855C26.9814 37.0959 27.0157 37.1475 27.0089 37.2025C27.002 37.2507 26.9574 37.2851 26.9094 37.2851L26.9128 37.2816Z" fill="white"/>
<path d="M27.6508 35.7301C27.6508 35.7301 27.6302 35.7301 27.6199 35.7266C26.323 35.2966 25.0227 34.815 23.7601 34.292C23.7087 34.2714 23.6846 34.2129 23.7052 34.1613C23.7258 34.1097 23.7841 34.0856 23.8356 34.1062C25.0948 34.6257 26.3882 35.1039 27.6817 35.534C27.7331 35.5512 27.7606 35.6062 27.7434 35.6613C27.7297 35.7026 27.692 35.7301 27.6474 35.7301H27.6508Z" fill="white"/>
<path d="M28.241 33.7453C28.241 33.7453 28.2205 33.7453 28.2136 33.7419C26.9133 33.3462 25.6473 32.8233 24.4464 32.1834C24.3984 32.1593 24.3778 32.0974 24.4053 32.0492C24.4327 32.0011 24.491 31.9804 24.5391 32.0079C25.7262 32.641 26.9819 33.1604 28.2685 33.5526C28.3199 33.5698 28.3508 33.6249 28.3337 33.6765C28.3199 33.7212 28.2822 33.7487 28.2376 33.7487L28.241 33.7453Z" fill="white"/>
<path d="M31.1909 33.1189C31.1909 33.1189 31.1634 33.1189 31.1497 33.1086C28.1991 31.7462 25.2622 30.2359 22.4146 28.619C22.3665 28.5915 22.3494 28.5295 22.3768 28.4848C22.4043 28.4367 22.466 28.4195 22.5106 28.447C25.3514 30.0605 28.2883 31.5673 31.232 32.9263C31.2835 32.9503 31.3041 33.0088 31.2801 33.057C31.2629 33.0948 31.2286 33.1155 31.1909 33.1155V33.1189Z" fill="white"/>
<path d="M32.4267 31.7463C32.4267 31.7463 32.3992 31.7463 32.3855 31.7359L23.5646 27.5456C23.5166 27.5215 23.4926 27.4631 23.5166 27.4114C23.5406 27.3598 23.5989 27.3392 23.6504 27.3633L32.4713 31.5536C32.5193 31.5777 32.5433 31.6362 32.5193 31.6878C32.5022 31.7222 32.4679 31.7463 32.4301 31.7463H32.4267Z" fill="white"/>
<path d="M31.7097 29.6513C31.7097 29.6513 31.6822 29.6513 31.6685 29.641C29.3114 28.5676 26.9441 27.422 24.6248 26.242C24.5768 26.2179 24.5562 26.156 24.5802 26.1078C24.6042 26.0596 24.666 26.039 24.714 26.0631C27.0299 27.2431 29.3972 28.3853 31.7508 29.4587C31.8023 29.4827 31.8229 29.5412 31.7989 29.5894C31.7817 29.6272 31.7474 29.6479 31.7097 29.6479V29.6513Z" fill="white"/>
<path d="M31.8153 27.4977C31.8153 27.4977 31.7879 27.4977 31.7776 27.4908L29.9214 26.7029C29.87 26.6823 29.846 26.6238 29.87 26.5722C29.8906 26.5206 29.9489 26.4965 30.0003 26.5206L31.8565 27.3084C31.9079 27.3291 31.932 27.3876 31.9079 27.4392C31.8908 27.477 31.8565 27.5011 31.8153 27.5011V27.4977Z" fill="white"/>
<path d="M33.1434 26.6785C33.1434 26.6785 33.1159 26.6785 33.1056 26.6716L31.6681 26.0489C31.6166 26.0283 31.596 25.9698 31.6166 25.9182C31.6372 25.8666 31.6955 25.8425 31.747 25.8666L33.1846 26.4893C33.236 26.5099 33.2566 26.5684 33.236 26.62C33.2189 26.6578 33.1846 26.6819 33.1434 26.6819V26.6785Z" fill="white"/>
<g opacity="0.13">
<path d="M47.0627 40.7496C46.7162 41.1212 46.3525 41.479 46.0094 41.8574C45.6217 42.2324 44.4964 43.7324 44.1498 44.2175C43.7313 44.7404 42.8735 45.7484 42.8186 45.8448C41.6281 47.4135 40.4479 49.0236 39.5455 50.7782C39.1956 51.0672 38.8525 51.2839 38.5265 51.3906C38.0462 51.5488 37.0615 51.5316 36.8145 51.4662C36.4851 51.4422 36.1764 51.2185 35.847 51.2633C35.6686 51.2805 35.5348 51.3596 35.4387 51.4731C35.4353 52.0201 35.4216 52.5671 35.3907 53.1141C35.3907 53.1623 35.3873 53.2105 35.3838 53.2552C35.4078 53.2758 35.4353 53.293 35.4627 53.3102C35.9636 53.6715 36.5812 53.7781 37.1885 53.7609C37.5728 53.7403 37.9913 53.7988 38.3584 53.6715C38.403 53.6577 38.4408 53.6371 38.4785 53.613C39.1029 53.7609 39.7583 53.8504 40.1322 53.2621C40.5028 52.4949 40.6709 52.0339 40.9591 51.3906C41.0208 51.3183 41.0826 51.2461 41.1443 51.1738C41.5355 50.3137 41.9918 49.4812 42.4893 48.6761C43.6832 46.753 45.1379 45.0122 46.4108 43.1441C46.7642 42.6281 47.0901 42.0948 47.3852 41.5444C47.6151 41.1212 47.7935 40.6912 47.9513 40.2439C47.6013 40.1442 47.3063 40.4331 47.0558 40.7496H47.0627Z" fill="white"/>
</g>
<g opacity="0.13">
<path d="M32.6052 49.0473C32.1729 48.8443 31.6377 48.9888 31.1711 48.9681C30.7731 48.9681 30.3751 48.9544 29.9771 48.9269C29.4968 48.8305 29.0233 48.7101 28.5601 48.5519C28.5292 48.5381 28.5018 48.5243 28.4709 48.5071C27.771 48.1115 27.1672 49.147 27.8534 49.5668C29.0782 50.1963 30.1178 50.1998 30.7491 50.3099C31.1196 50.3615 31.4936 50.3718 31.8641 50.3993C32.1351 50.4062 32.4611 50.4303 32.6772 50.2411C33.0889 49.959 33.0306 49.2881 32.6052 49.0473Z" fill="white"/>
</g>
</g>
<defs>
<clipPath id="clip0_1_11247">
<rect width="73" height="74" fill="white" transform="translate(0 0.000488281)"/>
</clipPath>
</defs>
</svg>
