<svg width="32" height="32" viewBox="0 0 32 32" fill="none" xmlns="http://www.w3.org/2000/svg">
<path fill-rule="evenodd" clip-rule="evenodd" d="M10 3C6.13401 3 3 6.13401 3 10V22C3 25.866 6.13401 29 10 29H22C25.866 29 29 25.866 29 22V10C29 6.13401 25.866 3 22 3H10ZM24.9894 8.75314L21.9346 23.4466C21.8627 23.7935 21.4559 23.9507 21.1689 23.7422L16.9989 20.7147C16.7457 20.5309 16.4005 20.5406 16.1582 20.7382L13.8462 22.6229C13.5779 22.8423 13.1735 22.72 13.0708 22.3895L12.485 20.5057C11.8419 18.4374 10.2775 16.7833 8.24829 16.0259L7.31783 15.6787C6.89651 15.5209 6.89291 14.9261 7.31303 14.7642L24.3349 8.19766C24.6957 8.05811 25.068 8.37423 24.9894 8.75314Z" fill="#F7F7F7"/>
<path fill-rule="evenodd" clip-rule="evenodd" d="M20.9181 11.4103L12.8122 16.4027C12.5015 16.5944 12.3553 16.9696 12.4555 17.3209L13.3319 20.4004C13.3943 20.6185 13.7108 20.5962 13.7412 20.3708L13.9689 18.6821C14.012 18.3641 14.1636 18.071 14.3988 17.8522L21.0884 11.6338C21.2137 11.5178 21.0637 11.3209 20.9181 11.4103Z" fill="#F7F7F7"/>
</svg>
